<?xml version="1.0" standalone="no"?>
<!DOCTYPE svg PUBLIC "-//W3C//DTD SVG 20010904//EN"
 "http://www.w3.org/TR/2001/REC-SVG-20010904/DTD/svg10.dtd">
<svg version="1.0" xmlns="http://www.w3.org/2000/svg"
 width="878.000000pt" height="472.000000pt" viewBox="0 0 878.000000 472.000000"
 preserveAspectRatio="xMidYMid meet">

<g transform="translate(0.000000,472.000000) scale(0.100000,-0.100000)"
fill="#000000" stroke="none">
<path d="M3557 3999 c-144 -19 -304 -91 -397 -181 -124 -118 -193 -249 -220
-418 -6 -41 -10 -424 -10 -1042 0 -1054 0 -1047 54 -1191 75 -198 256 -356
484 -420 76 -21 87 -22 1037 -25 1026 -4 1086 -1 1225 44 246 82 419 283 466
544 17 95 20 1995 4 2099 -26 156 -85 270 -203 389 -110 113 -252 179 -428
202 -102 12 -1912 12 -2012 -1z m-7 -1038 c0 -10 -7 -51 -16 -90 l-16 -71
-104 0 c-94 0 -104 2 -104 18 0 18 18 125 26 150 2 8 33 12 109 12 96 0 105
-2 105 -19z m492 8 c29 -6 56 -14 60 -18 3 -3 1 -31 -6 -61 -12 -52 -14 -55
-42 -53 -130 11 -153 9 -179 -18 -17 -16 -29 -41 -32 -67 l-6 -42 77 0 c42 0
76 -4 76 -10 0 -5 -5 -32 -11 -60 l-11 -50 -78 0 c-72 0 -78 -2 -83 -22 -3
-13 -31 -151 -62 -308 -30 -157 -58 -293 -61 -302 -5 -16 -19 -18 -108 -18
-56 0 -105 2 -108 5 -3 3 23 146 58 317 35 171 61 315 58 319 -3 5 -18 9 -35
9 -33 0 -33 0 -17 69 11 50 12 51 50 51 24 0 38 5 38 13 0 28 51 118 89 156
86 86 201 117 333 90z m1938 -5 c0 -9 -9 -55 -19 -103 -11 -47 -50 -232 -87
-411 -36 -179 -68 -328 -71 -332 -2 -5 -52 -8 -110 -8 l-105 0 6 25 c3 14 9
37 12 53 l6 27 -29 -32 c-40 -42 -102 -72 -174 -85 -52 -9 -63 -8 -103 12 -91
43 -110 160 -51 300 51 122 142 228 236 276 42 21 72 28 136 32 73 4 82 7 86
26 3 11 15 69 27 129 l23 107 108 0 c94 0 109 -2 109 -16z m-1551 -259 c105
-37 146 -99 139 -211 -12 -189 -174 -364 -366 -395 -125 -20 -250 28 -293 112
-18 36 -21 55 -17 119 4 63 11 87 44 150 58 113 137 183 253 225 50 19 189 18
240 0z m666 4 c64 -16 129 -76 145 -135 39 -137 -83 -358 -240 -436 -143 -71
-313 -51 -398 46 -93 106 -11 353 156 468 91 63 224 85 337 57z m-1596 -11 c0
-7 -26 -141 -57 -298 l-57 -285 -108 -3 c-97 -2 -107 -1 -107 15 0 10 26 145
57 301 l57 282 108 0 c80 0 108 -3 107 -12z m1585 -757 c5 -7 -65 -384 -80
-435 -8 -25 -18 -11 -39 54 -31 97 -28 95 -93 51 -156 -106 -307 -147 -510
-139 -95 4 -130 10 -186 32 -128 49 -226 134 -294 257 -42 73 -74 167 -61 175
12 7 12 7 32 -32 23 -44 112 -139 163 -175 24 -16 74 -42 111 -56 58 -23 84
-27 178 -27 164 -1 315 49 443 145 l53 40 -66 51 c-36 28 -65 54 -65 59 0 12
407 12 414 0z"/>
</g>
</svg>
