<?xml version="1.0" encoding="utf-8"?>
<!-- Generator: Adobe Illustrator 23.0.3, SVG Export Plug-In . SVG Version: 6.00 Build 0)  -->
<svg version="1.1" id="Capa_1" xmlns="http://www.w3.org/2000/svg" xmlns:xlink="http://www.w3.org/1999/xlink" x="0px" y="0px"
	 viewBox="0 0 1200 100" style="enable-background:new 0 0 1200 100;" xml:space="preserve">
<style type="text/css">
	.st0{fill:#EBC666;}
</style>
<g>
	<path class="st0" d="M1186.16,85.15c-0.22,1.4,2.25,0.9,2.69,1.11C1188.31,83.91,1185.52,85.21,1186.16,85.15z"/>
	<path class="st0" d="M1190.12,23.57c0.48-0.34,0.78-1.07,1.04-1.83c0.26-1.15,0.49-1.96,0.84-1.03c-0.8-5.78-1.76-4.25-3.34-1.12
		l0.73,2.48L1190.12,23.57z"/>
	<polygon class="st0" points="1106.73,6.53 1097.18,7.63 1101.37,7.26 	"/>
	<path class="st0" d="M1077.42,7.38c3.97-0.6-5.44-1.02-1.24-1.38c-6.5,0.11-12.06,0.62-17.06,1.09
		C1064.43,6.83,1070.09,6.89,1077.42,7.38z"/>
	<polygon class="st0" points="978.68,7.91 973.14,8.4 977.9,8.73 	"/>
	<path class="st0" d="M28.65,90.85c4.83-0.16,6.88-0.34,6.95-0.54C30.95,90.46,28.02,90.63,28.65,90.85z"/>
	<path class="st0" d="M1114.28,90.17c-1.95,0.06-5.13,0.06-8.13,0.07C1107.62,90.3,1110.07,90.3,1114.28,90.17z"/>
	<polygon class="st0" points="1147.14,91.3 1156.11,91.74 1150.32,91.03 	"/>
	<path class="st0" d="M1164.36,89.74l2.11,1.34l5.39-1.21C1169.83,89.93,1165.9,90.05,1164.36,89.74z"/>
	<path class="st0" d="M14.62,12.59c0.22-1.4-2.25-0.9-2.69-1.11C12.48,13.83,15.26,12.53,14.62,12.59z"/>
	<path class="st0" d="M10.67,74.16c-0.48,0.34-0.78,1.07-1.04,1.83c-0.26,1.15-0.49,1.96-0.84,1.03c0.8,5.78,1.76,4.25,3.34,1.12
		l-0.73-2.48L10.67,74.16z"/>
	<polygon class="st0" points="94.06,91.2 103.61,90.11 99.42,90.48 	"/>
	<path class="st0" d="M123.37,90.35c-3.97,0.6,5.44,1.02,1.24,1.38c6.5-0.11,12.06-0.62,17.06-1.09
		C136.36,90.91,130.7,90.84,123.37,90.35z"/>
	<polygon class="st0" points="222.11,89.83 227.65,89.34 222.89,89.01 	"/>
	<path class="st0" d="M1172.14,6.89c-4.83,0.16-6.88,0.34-6.95,0.54C1169.84,7.28,1172.77,7.11,1172.14,6.89z"/>
	<path class="st0" d="M86.5,7.56c1.95-0.06,5.13-0.06,8.13-0.07C93.17,7.43,90.72,7.44,86.5,7.56z"/>
	<path class="st0" d="M1191.78,37.24c0.72-0.82-0.49-3.04-1.71-5.69c0.2-0.42,0.25-1.08-0.28-0.63c-0.07-0.15-0.14-0.31-0.2-0.46
		c0.01-0.4,0.03-0.89,0.11-1.57c-0.29,0.13-0.52,0.13-0.7,0.07c-0.97-2.63-1.43-5.37,0.15-7.45c-0.55,0.4-1.11,0.79-1.64,1.02
		c-0.1-0.28-0.2-0.43-0.3-0.87l-0.33-1.37l-0.65-2.66c-0.68,0.81-2.04,0.91,0.47,2.45c-0.62-0.19-0.63-0.03-0.38,0.45
		c0.25,0.44,0.75,1.45,1.18,2c-0.95,0.4-1.83,0.26-2.57-1.36c-0.05-0.32-0.04-0.67,0-1.03c0.07-0.41,0.14-0.84,0.22-1.29
		c0.21-0.89,0.45-1.85,0.68-2.82l0.41,1.59c0.35-0.42,0.45-1.07-0.3-2.03c0.03-0.11,0.05-0.21,0.08-0.33
		c0.68-2.54,1.45-5.43,1.66-8.05c-7.07-0.07-14.34,0.05-19.98,0.62c-1.88-0.15-2.54-0.29-2.49-0.42c-3.24,0.08-7.44,0.19-12.07,0.31
		c-2.64,0.09-5.5,0.19-8.32,0.28c-3.2-0.17-7-0.37-7.33-0.73c-0.4,0.23,1.41,0.59,2.61,0.91c-5.17,0.22-9.72,0.49-11.84,0.87
		c-5.28-2.29-27.33-0.76-41.18-0.46c0.14-0.01,0.27-0.02,0.42-0.02c-1.39-0.19-1.24-0.1-0.68,0.03c-6.62,0.14-11.33-0.02-11.27-1.04
		l-24.73,0.16c2.62-0.15,5.34-0.4,8.29-0.67c-2.8,0.14-5.55,0.34-8.33,0.67l-1.41,0.01l0.68-0.32c-16.73-0.21-22.64,0.55-28.52,1.3
		c-3.87-0.21-1.04-0.51-0.72-0.67c-8.92-0.23-14.89-0.36-19.9-0.35l0.09-0.04l-0.27,0.04c-8.61,0.01-14.36,0.43-27.29,1.42
		l-2.13-1.02c-5.55,0.59-35.34-1.6-59.31-0.41c0.24-0.12,0.73-0.31,2.64-0.46c-26.74,1.19-63.89-2.75-74.16,0.8
		c-3.84-0.03-7.52,0.01-10.39,0.18c-6.17-0.2-15.6,1.02-10.22,0.3l-14.31,0.4c-7.7-0.1-15.99-0.11-15.68-0.78
		c-45.31,0.1-89.48-0.98-131.92-1.06l0.05,0.02c-8.88-0.04-19.11,0.2-27.78,0.29c3.77-0.4,10.24-0.73,6.88-0.75l-8.61,0.11
		l1.94,0.18c-1.89,0.17-3.31,0.34-4.63,0.49c-2.56,0.01-4.93,0-6.97-0.06l-0.36,0.65c-2.09,0.08-4.68,0.12-8.33,0.1
		c-8.03-0.3-4.12-0.93-7.28-0.99c0.02-0.11-1.05-0.16-4.85-0.04l-18.65-0.13l7.46,1.19c-8.27,0.59-17.54-0.06-8.93,1.29
		c-12.63-2.08-69.58-0.75-77.34-1.39c-11.58,0.87-23.01,0.85-37.17,0.75c0.39,0.03,0.75,0.07,1.08,0.12
		c-0.47-0.03-0.88-0.07-1.37-0.1c0.58,0.06,1.06,0.09,1.63,0.14c0.59,0.1,1.02,0.24,1.23,0.38c-2.58,0.04-5.61,0.11-8.77,0.21
		c-0.22-0.43-1.6-0.71-3.79-0.89c3.81-0.07,7.04-0.01,9.71,0.15c-6.9-0.76-14.62-1.94-13.78-1.03l1.71,0.72
		c-7.65-0.38-20.33-0.25-26.47-1.48c8.82,1.32-34.72,0.32-20.88,2.2c-10.19-0.22-0.62-1.03-8.35-1.68
		c-24.25,1.07-53.45-0.69-83.43-0.33c-0.47,0.36,4.55,0.92-1.88,1.46l-15.83-1.81c-5.92,0.18-5.45,2.09-16.27,0.83
		c1.53,0.3,3.81,0.76-0.16,0.88c-43.81-1.32-89.03,0.13-133.94-0.42c0.26-0.02,0.53-0.04,0.77-0.06c-0.84,0-1.48,0.03-2.26,0.04
		c-14.8-0.2-29.56-0.61-44.23-1.43c8.08,0.7,2.69,0.77-3.47,0.8c4.01,0.17-0.09,0.9,0.7,1.39L70.36,7.52
		c-4.55,1.36-26.77,0.09-29.38,1.4l7.91-0.23c-5.32,0.78-1.48,1.64,3.4,2.56c-5.26-0.04-8.79-0.06-12.21-0.08
		c-5.13-0.02-10.28-0.02-19.42,0.04l5.59,0.22c-1.38,0.56-3.22,0.77-5.9,0.81c0.22,1.79-1.12,3.66-0.77,6.9l-0.46-0.19
		c-0.36,1.38-0.65,2.48-0.88,3.38c-0.19,0.73-0.28,1.3-0.31,1.76c-0.06,0.92,0.12,1.4,0.28,1.87c0.33,0.95,0.61,1.89-1.25,6.3
		l2.82-0.48c2.98,0.4,2.16,2.31,0.84,4.74l-0.39-0.81l-1-0.41l1.18,1.63c-1.34,2.44-2.99,5.32-1.87,7.79l0.23-0.26
		c0.08,0.52,0.17,1.04,0.28,1.58c-2.43,2.58-7.38,5.53-7.9,7.46c-0.53,0.61-0.85-0.97-1.24-1.82c-3.58,7.35,3.69,0.95,4.55,6.43
		c-1.99,1.01-5.07-1.3-5.44,2.39c-0.72,0.82,0.49,3.04,1.71,5.69c-0.2,0.42-0.25,1.08,0.28,0.63c0.07,0.15,0.14,0.31,0.21,0.46
		c0,0.4-0.03,0.89-0.11,1.57c0.29-0.13,0.52-0.13,0.7-0.07c0.97,2.63,1.43,5.37-0.15,7.45c0.55-0.4,1.11-0.79,1.64-1.02
		c0.1,0.28,0.2,0.43,0.3,0.87l0.33,1.37l0.65,2.66c0.68-0.81,2.04-0.91-0.47-2.45c0.62,0.19,0.63,0.03,0.38-0.45
		c-0.25-0.44-0.75-1.45-1.18-2c0.94-0.4,1.83-0.26,2.57,1.36c0.05,0.32,0.04,0.67,0,1.03c-0.07,0.41-0.14,0.84-0.22,1.29
		c-0.21,0.89-0.45,1.85-0.68,2.82l-0.41-1.59c-0.35,0.42-0.45,1.07,0.3,2.03c-0.03,0.11-0.05,0.21-0.08,0.33
		c-0.68,2.54-1.45,5.43-1.66,8.05c7.07,0.07,14.34-0.05,19.98-0.62c1.88,0.15,2.54,0.29,2.49,0.42c3.24-0.08,7.44-0.19,12.07-0.31
		c2.64-0.09,5.5-0.19,8.31-0.28c3.2,0.17,7,0.37,7.33,0.73c0.4-0.23-1.41-0.59-2.61-0.91c5.17-0.22,9.72-0.49,11.84-0.87
		c5.28,2.29,27.33,0.76,41.18,0.46c-0.13,0.01-0.27,0.02-0.41,0.02c1.39,0.18,1.24,0.1,0.68-0.03c6.62-0.14,11.33,0.02,11.27,1.03
		l24.73-0.16c-2.62,0.14-5.34,0.4-8.29,0.67c2.8-0.14,5.55-0.34,8.33-0.67l1.41-0.01l-0.68,0.32c16.73,0.21,22.64-0.55,28.52-1.3
		c3.87,0.21,1.04,0.51,0.72,0.67c8.92,0.23,14.89,0.36,19.9,0.35l-0.09,0.04l0.27-0.04c8.61-0.01,14.36-0.43,27.29-1.42l2.13,1.02
		c5.56-0.59,35.34,1.6,59.31,0.41c-0.23,0.12-0.73,0.31-2.64,0.46c26.74-1.19,63.89,2.75,74.16-0.8c3.84,0.03,7.52-0.01,10.39-0.18
		c6.17,0.2,15.6-1.02,10.22-0.3l14.31-0.4c7.7,0.1,16,0.11,15.68,0.78c45.31-0.1,89.48,0.98,131.92,1.06l-0.05-0.02
		c8.88,0.04,19.11-0.2,27.78-0.29c-3.77,0.4-10.24,0.73-6.88,0.75l8.61-0.11l-1.94-0.18c1.89-0.17,3.31-0.33,4.63-0.49
		c2.56-0.01,4.93,0,6.97,0.06l0.36-0.65c2.09-0.08,4.68-0.12,8.33-0.1c8.03,0.3,4.12,0.93,7.28,0.99c-0.02,0.11,1.05,0.16,4.85,0.04
		l18.65,0.13l-7.46-1.19c8.27-0.59,17.54,0.06,8.93-1.29c12.63,2.08,69.58,0.75,77.34,1.39c11.58-0.87,23.01-0.85,37.17-0.75
		c-0.39-0.03-0.75-0.07-1.08-0.12c0.47,0.03,0.88,0.07,1.37,0.1c-0.58-0.06-1.06-0.09-1.63-0.14c-0.6-0.1-1.02-0.24-1.23-0.38
		c2.57-0.04,5.61-0.11,8.77-0.21c0.22,0.43,1.6,0.71,3.79,0.89c-3.81,0.07-7.04,0.01-9.71-0.15c6.9,0.76,14.62,1.94,13.78,1.03
		l-1.71-0.72c7.65,0.38,20.33,0.25,26.47,1.48c-8.82-1.32,34.72-0.33,20.88-2.2c10.19,0.22,0.62,1.03,8.35,1.68
		c24.25-1.07,53.45,0.7,83.43,0.33c0.47-0.36-4.55-0.92,1.88-1.46l15.83,1.81c5.92-0.18,5.45-2.09,16.27-0.83
		c-1.53-0.3-3.81-0.76,0.16-0.88c43.81,1.32,89.03-0.13,133.94,0.42c-0.26,0.02-0.53,0.04-0.77,0.06c0.84,0,1.48-0.03,2.26-0.04
		c14.8,0.2,29.57,0.61,44.23,1.43c-8.08-0.7-2.69-0.77,3.47-0.8c-4.01-0.17,0.09-0.9-0.7-1.39l24.97,1.36
		c4.55-1.36,26.77-0.09,29.38-1.4l-7.91,0.23c5.32-0.78,1.48-1.64-3.4-2.56c5.26,0.04,8.79,0.06,12.21,0.08
		c5.13,0.02,10.28,0.02,19.42-0.04l-5.59-0.22c1.38-0.56,3.22-0.77,5.9-0.81c-0.22-1.79,1.12-3.66,0.77-6.9l0.46,0.19
		c0.36-1.38,0.65-2.48,0.88-3.38c0.19-0.73,0.28-1.3,0.31-1.76c0.07-0.92-0.12-1.4-0.28-1.87c-0.34-0.95-0.61-1.89,1.25-6.3
		l-2.82,0.48c-2.98-0.4-2.16-2.31-0.84-4.74l0.39,0.81l1,0.41l-1.18-1.63c1.34-2.44,2.99-5.32,1.88-7.79l-0.23,0.26
		c-0.08-0.52-0.17-1.04-0.28-1.58c2.43-2.58,7.38-5.53,7.9-7.46c0.53-0.61,0.85,0.97,1.24,1.82c3.58-7.35-3.69-0.95-4.55-6.43
		C1188.34,38.62,1191.41,40.93,1191.78,37.24z M19.41,43.7l0.72-0.83c0.29,0.39,0.3,0.82,0.17,1.29L19.41,43.7z M828.42,11.28
		c-2.78,0.07-6.05-0.01-8.94-0.16c3.05-0.33,5.84-0.65,9.4-0.81C826.62,10.67,824.61,11.03,828.42,11.28z M601.19,7.5l2.93,0.26
		C597.51,8.05,599.36,7.79,601.19,7.5z M372.37,86.46c2.78-0.07,6.05,0.01,8.94,0.16c-3.05,0.33-5.85,0.65-9.4,0.81
		C374.17,87.07,376.18,86.71,372.37,86.46z M599.6,90.24l-2.93-0.26C603.28,89.69,601.43,89.95,599.6,90.24z M1181.38,54.04
		l-0.72,0.83c-0.29-0.39-0.3-0.82-0.17-1.29L1181.38,54.04z"/>
	<polygon class="st0" points="53.65,6.44 44.68,6 50.47,6.71 	"/>
	<path class="st0" d="M36.43,7.99l-2.11-1.34l-5.39,1.21C30.96,7.81,34.89,7.69,36.43,7.99z"/>
</g>
</svg>
