<?xml version="1.0" standalone="no"?>
<!DOCTYPE svg PUBLIC "-//W3C//DTD SVG 20010904//EN"
 "http://www.w3.org/TR/2001/REC-SVG-20010904/DTD/svg10.dtd">
<svg version="1.0" xmlns="http://www.w3.org/2000/svg"
 width="500.000000pt" height="500.000000pt" viewBox="0 0 500.000000 500.000000"
 preserveAspectRatio="xMidYMid meet">

<g transform="translate(0.000000,500.000000) scale(0.100000,-0.100000)"
fill="#000000" stroke="none">
<path d="M0 2500 l0 -2500 2500 0 2500 0 0 2500 0 2500 -2500 0 -2500 0 0
-2500z m2460 2023 c0 -67 6 -72 79 -70 l66 2 3 -41 c3 -41 2 -41 -35 -47 -21
-4 -50 -7 -65 -7 -32 0 -32 7 -14 -143 7 -62 18 -112 25 -116 7 -5 40 -9 74
-10 34 -1 102 -6 150 -12 49 -6 90 -9 91 -7 4 4 -21 208 -26 212 -1 2 -30 0
-63 -4 -33 -4 -62 -6 -64 -4 -2 2 -6 23 -8 48 l-5 44 66 7 67 7 -3 52 -3 51
48 3 47 3 0 -38 c0 -56 7 -61 75 -53 33 4 61 6 62 5 2 -1 6 -22 9 -47 l6 -45
-66 -8 c-76 -8 -72 6 -53 -159 l12 -100 90 -31 c116 -40 167 -67 218 -115 25
-22 103 -67 187 -108 194 -95 328 -189 474 -334 66 -65 120 -117 121 -115 2 5
35 136 35 141 0 3 -15 12 -33 20 -62 25 -85 91 -54 152 51 100 197 38 197 -83
0 -24 -7 -60 -15 -80 -20 -48 -19 -86 3 -113 19 -24 42 -20 42 6 0 28 39 124
67 167 l30 43 -25 18 c-63 48 -77 124 -41 221 22 60 31 65 52 35 18 -26 53
-16 62 17 l6 26 26 -24 c71 -66 102 -177 69 -241 -13 -24 -12 -31 6 -67 14
-30 22 -73 28 -163 5 -68 11 -130 14 -138 4 -8 23 -22 44 -31 37 -16 38 -17
50 -95 7 -43 19 -126 27 -184 7 -58 40 -298 73 -535 33 -236 62 -443 64 -460
l3 -30 -179 -25 -178 -25 -27 -105 c-33 -128 -60 -200 -75 -201 -42 -5 -126
12 -126 25 0 7 16 61 35 120 39 121 42 139 19 134 -10 -2 -29 -44 -54 -123
-24 -73 -47 -127 -60 -137 -11 -9 -15 -18 -9 -20 13 -4 -9 -58 -24 -58 -6 0
-8 -3 -4 -6 8 -9 -41 -104 -53 -104 -6 0 -10 -8 -10 -17 -1 -29 -83 -136 -110
-144 -14 -4 -19 -7 -12 -8 21 -2 13 -31 -13 -43 -14 -6 -25 -16 -25 -23 0 -15
-150 -159 -225 -217 -218 -165 -472 -271 -740 -308 -92 -12 -305 -12 -415 1
-244 30 -507 135 -708 282 -142 105 -165 127 -151 144 9 10 6 13 -12 13 -27 0
-86 57 -171 165 -71 92 -73 96 -57 106 19 12 49 11 49 -2 0 -11 75 -100 175
-206 44 -48 56 -66 46 -72 -9 -6 0 -14 30 -25 46 -18 99 -58 99 -75 0 -5 17
-15 38 -22 20 -6 48 -20 62 -29 48 -33 245 -127 324 -154 150 -52 239 -67 431
-73 153 -4 198 -2 300 15 216 37 406 112 582 228 77 51 273 217 282 239 9 21
61 66 71 60 5 -3 7 0 4 8 -2 7 15 40 38 73 53 72 108 161 108 174 0 6 5 10 10
10 6 0 10 7 10 16 0 9 7 28 15 42 22 39 83 205 91 247 l7 37 -46 -7 c-24 -4
-116 -17 -203 -28 l-159 -22 -28 -52 -27 -51 -31 15 c-24 12 -48 14 -104 9
-63 -6 -77 -4 -109 15 -28 16 -44 19 -76 14 -43 -7 -58 -19 -39 -31 17 -10
-29 -33 -67 -34 -18 0 -38 8 -49 20 -13 14 -25 18 -49 13 -40 -8 -42 -9 -25
-29 11 -14 10 -17 -4 -25 -11 -7 -17 -23 -17 -47 l0 -37 -41 58 c-34 48 -45
57 -70 57 -26 0 -29 -3 -24 -20 6 -18 2 -20 -34 -20 -25 0 -43 6 -48 15 -6 9
-17 12 -32 8 -17 -4 -22 -11 -18 -29 3 -16 -4 -31 -24 -50 l-27 -26 -18 61
c-10 34 -21 61 -24 61 -9 0 -30 -54 -30 -78 0 -18 -4 -23 -16 -18 -9 3 -25 6
-36 6 -15 0 -19 5 -15 20 8 32 -46 28 -61 -5 -15 -31 -72 -37 -72 -7 0 30 -58
17 -66 -14 -5 -20 -12 -24 -45 -24 -28 0 -39 4 -39 15 0 25 -55 19 -77 -9 -13
-18 -31 -25 -71 -29 -49 -6 -52 -5 -42 13 9 16 7 20 -7 20 -43 -1 -97 -20
-122 -44 -24 -23 -36 -26 -95 -26 -60 0 -67 2 -56 15 13 16 7 18 -27 9 -12 -3
-19 -12 -17 -19 8 -20 -57 -26 -79 -7 -16 15 -29 14 -150 -6 -73 -12 -162 -25
-199 -28 l-67 -7 19 -38 c25 -48 25 -49 -1 -49 -12 0 -36 16 -53 35 -18 19
-40 35 -49 35 -16 0 -16 -2 -1 -32 9 -18 35 -59 57 -92 26 -39 36 -61 28 -65
-8 -5 -3 -11 12 -18 13 -6 47 -39 77 -73 l53 -62 -73 8 c-54 5 -71 4 -66 -5 4
-6 26 -11 49 -11 71 0 103 -16 194 -93 49 -40 112 -90 141 -110 50 -34 52 -37
33 -49 -19 -12 -19 -13 11 -25 21 -9 34 -10 38 -3 4 6 49 -11 119 -45 238
-117 429 -165 681 -170 413 -9 777 120 1095 389 93 79 165 147 165 157 0 3 16
23 35 44 30 35 39 39 76 38 45 -2 99 -20 99 -33 0 -11 -67 -95 -111 -141 -19
-19 -45 -50 -58 -68 -34 -47 -160 -153 -280 -233 -188 -125 -403 -215 -640
-265 -114 -25 -146 -27 -336 -27 -178 -1 -227 3 -322 22 -133 27 -301 83 -433
145 -86 40 -159 86 -120 74 8 -2 26 -8 40 -12 20 -6 23 -5 13 5 -7 7 -27 14
-46 15 -35 2 -49 9 -162 84 -96 63 -318 279 -312 303 3 10 0 18 -7 18 -17 0
-56 43 -111 125 -27 40 -42 71 -36 73 6 2 0 13 -15 25 -15 11 -33 35 -40 53
-16 37 -2 37 -233 3 -74 -11 -136 -17 -139 -14 -3 2 -14 64 -24 137 -72 512
-108 781 -104 786 3 2 1 12 -3 21 -5 9 -12 47 -16 84 -6 59 -5 67 10 67 33 0
54 41 55 107 0 91 -19 260 -36 320 -9 29 -13 56 -10 61 3 6 -3 20 -13 33 -11
15 -20 49 -24 93 -4 38 -9 71 -11 74 -7 7 -85 5 -128 -3 -34 -6 -41 -4 -65 24
-25 28 -33 31 -85 31 -45 0 -58 3 -58 15 0 9 10 15 23 16 12 0 31 3 42 5 11 2
52 6 92 9 39 2 84 10 100 18 15 8 50 20 78 26 69 17 75 24 75 92 0 50 3 59 21
64 30 10 50 -15 56 -68 l5 -45 84 -7 c53 -5 95 -3 115 4 18 6 42 11 53 11 12
0 40 9 61 21 44 22 115 34 115 19 0 -14 -60 -50 -82 -50 -11 0 -25 -15 -35
-37 -16 -32 -25 -38 -78 -53 -75 -20 -125 -49 -125 -72 0 -10 12 -71 26 -136
28 -128 36 -204 34 -300 -3 -114 34 -224 60 -181 8 11 15 12 41 2 18 -7 34
-11 37 -9 2 2 -12 10 -32 17 -36 13 -39 25 -19 79 3 8 8 24 10 34 6 30 22 44
46 40 l22 -5 -22 10 c-27 12 -28 17 -8 64 16 38 18 38 95 10 8 -4 23 -5 33 -4
10 1 17 -4 17 -14 0 -11 -5 -15 -15 -11 -8 3 -15 1 -15 -4 0 -6 5 -10 10 -10
6 0 4 -13 -5 -30 -9 -16 -21 -30 -28 -30 -8 0 -7 -3 2 -9 13 -8 12 -17 -2 -61
-16 -50 -22 -90 -13 -90 20 0 36 16 36 36 0 13 4 24 9 24 21 0 41 -13 41 -27
0 -11 20 -13 114 -11 63 2 109 6 104 9 -10 6 140 39 178 39 16 0 30 20 63 85
24 46 58 108 76 136 l32 52 -23 35 c-39 57 -27 117 26 134 9 3 16 18 17 39 1
19 5 65 10 103 8 58 14 73 40 96 17 15 36 29 43 32 10 3 9 16 -4 60 -9 32 -20
59 -25 63 -20 12 -225 -150 -299 -235 -77 -89 -202 -267 -202 -286 0 -17 -21
-23 -47 -13 -22 8 -22 9 19 81 52 93 114 175 213 284 91 99 172 167 192 160 7
-3 13 0 13 6 0 6 7 20 16 30 16 16 16 18 0 24 -9 3 -27 -1 -41 -10 -13 -9 -35
-16 -47 -16 -15 0 -19 -3 -11 -8 8 -5 -14 -31 -67 -80 -92 -84 -234 -257 -291
-354 -22 -38 -44 -68 -49 -68 -5 0 -7 -6 -4 -14 8 -22 -23 -27 -92 -15 l-63
11 26 51 c48 95 124 211 202 306 77 95 188 211 201 211 5 0 24 16 43 35 19 19
45 35 57 35 11 0 19 4 15 9 -3 6 6 18 21 28 70 49 94 77 115 134 25 68 75 120
164 170 55 31 56 33 51 68 -3 20 -8 63 -11 96 -4 33 -9 73 -12 89 l-5 28 -63
-5 c-70 -6 -75 -3 -75 59 0 32 2 34 34 34 18 0 48 3 66 6 32 7 32 7 26 55 l-7
48 36 7 c51 9 63 1 67 -48 l3 -43 66 3 67 4 7 -42 c4 -23 5 -44 2 -47 -3 -2
-33 -7 -67 -10 l-62 -6 6 -76 c12 -132 17 -153 35 -146 52 21 257 75 283 75
l31 0 -6 53 c-4 28 -10 85 -13 126 l-7 74 -69 -7 c-51 -5 -68 -3 -68 6 0 7 -3
30 -6 51 -7 37 -7 37 28 37 20 0 50 3 68 6 32 7 32 8 28 55 -5 52 -3 54 65 58
23 1 27 -3 27 -26z m-858 -1563 l39 0 -21 -27 c-17 -21 -20 -35 -15 -65 4 -21
5 -38 3 -38 -1 0 -25 11 -52 25 -54 28 -69 26 -41 -5 18 -20 17 -20 -10 -20
-24 0 -26 3 -21 25 5 21 1 29 -24 43 -34 20 -34 34 1 42 15 3 31 20 43 44 l19
38 19 -31 c17 -26 26 -31 60 -31z m-427 -26 c46 -7 47 -8 41 -37 -12 -58 -39
-70 -99 -43 -18 8 -39 17 -47 19 -8 3 -3 6 13 6 29 1 36 15 12 25 -8 3 -15 12
-15 21 0 17 21 19 95 9z m132 -74 c-21 -48 -38 -59 -65 -42 -17 11 4 72 25 72
8 0 11 5 8 10 -4 6 6 10 24 10 l30 0 -22 -50z m-48 -87 c0 -10 -8 -43 -17 -73
-15 -47 -21 -55 -45 -58 -22 -3 -27 1 -27 17 0 12 4 21 10 21 5 0 7 7 4 15 -4
8 -1 15 5 15 6 0 8 6 5 14 -3 7 2 16 11 20 11 4 14 12 10 26 -5 16 -2 20 19
20 18 0 26 -5 25 -17z m2399 -1096 c24 -25 46 -118 36 -151 -3 -12 -16 -29
-28 -38 -16 -14 -18 -18 -5 -18 33 0 51 -37 64 -136 8 -54 13 -100 11 -102
-10 -10 -116 -14 -116 -4 0 19 -21 167 -26 185 -3 9 -13 17 -23 17 -17 0 -17
-6 -3 -106 7 -58 12 -108 9 -111 -3 -2 -32 -7 -64 -10 l-58 -5 -31 241 c-30
241 -30 242 -10 246 38 8 80 12 152 14 62 1 73 -2 92 -22z m-298 -41 c0 -19 3
-41 6 -50 5 -13 -1 -16 -27 -16 -48 0 -56 -9 -51 -58 l4 -44 42 4 41 3 0 -45
c0 -43 -1 -45 -32 -48 -30 -3 -33 -6 -33 -35 0 -18 3 -43 7 -56 5 -21 10 -23
49 -17 47 6 54 -1 54 -59 0 -36 -4 -38 -145 -51 l-70 -6 -31 241 c-16 132 -30
241 -30 242 1 1 180 26 199 28 13 1 17 -7 17 -33z m-319 -23 c32 -19 54 -59
62 -114 5 -36 4 -37 -31 -43 -83 -13 -90 -10 -98 39 -7 48 -19 64 -36 47 -7
-7 -5 -55 7 -154 20 -163 28 -190 50 -182 26 10 16 114 -11 114 -10 0 -14 12
-14 39 l0 38 67 7 c36 4 69 3 73 -1 4 -4 13 -55 19 -113 7 -58 15 -112 17
-121 6 -22 -66 -35 -81 -15 -9 11 -16 10 -38 -10 -50 -43 -141 -24 -171 35
-17 32 -46 238 -46 321 0 61 16 89 65 114 40 21 129 20 166 -1z m-313 -56 c24
-25 46 -118 36 -151 -3 -12 -16 -29 -28 -38 -16 -14 -18 -18 -5 -18 33 0 51
-37 64 -136 8 -54 13 -100 11 -102 -10 -10 -116 -14 -116 -4 0 19 -21 167 -26
185 -3 9 -13 17 -23 17 -17 0 -17 -6 -3 -106 7 -58 12 -108 9 -111 -3 -2 -32
-7 -64 -10 l-58 -5 -31 241 c-30 241 -30 242 -10 246 38 8 80 12 152 14 62 1
73 -2 92 -22z m1532 8 c27 -14 28 -17 18 -47 -13 -38 -71 -144 -125 -228 l-23
-36 -72 10 c-40 5 -74 10 -76 12 -9 6 71 114 86 115 11 0 12 2 4 6 -9 3 1 31
35 94 47 88 48 89 86 89 21 0 51 -7 67 -15z m-1847 -37 c3 -13 16 -105 28
-205 19 -153 20 -186 9 -212 -18 -44 -61 -72 -123 -78 -68 -7 -119 15 -140 60
-14 30 -69 407 -61 416 4 5 117 21 120 18 1 -1 13 -92 28 -201 14 -110 30
-204 34 -208 5 -5 13 -3 19 4 7 9 3 69 -13 193 -13 99 -23 189 -22 200 3 20 6
21 104 33 7 1 14 -8 17 -20z m-370 -58 c50 -40 62 -137 21 -175 -25 -23 -25
-25 -7 -25 33 0 54 -35 65 -107 13 -85 6 -118 -30 -137 -26 -13 -166 -36 -221
-36 l-26 0 -31 240 c-30 240 -30 241 -10 245 37 8 80 12 147 14 53 1 71 -3 92
-19z m1356 -117 c0 -5 -13 -18 -30 -31 l-29 -24 0 25 c0 14 6 28 13 30 19 8
47 8 46 0z m-1279 -64 c0 -11 -4 -18 -10 -14 -5 3 -7 12 -3 20 7 21 13 19 13
-6z m769 -186 c2 -2 -7 -3 -21 -3 -20 0 -27 6 -31 26 l-4 25 26 -23 c14 -13
28 -24 30 -25z"/>
<path d="M2346 4035 c-174 -33 -388 -125 -464 -198 -58 -56 -103 -146 -109
-218 -4 -36 -2 -59 6 -63 6 -4 11 -2 11 3 0 6 5 11 10 11 6 0 10 -6 10 -13 0
-17 64 -37 116 -37 22 0 54 -4 73 -10 38 -10 725 -17 756 -7 22 7 219 32 330
42 99 9 203 32 232 51 23 14 24 20 18 62 -15 106 -165 276 -165 188 0 -13 6
-27 13 -29 6 -3 1 -6 -12 -6 -20 -1 -21 -3 -11 -16 10 -12 9 -15 -4 -15 -13 0
-15 8 -11 41 3 23 8 45 11 50 3 5 0 9 -5 9 -6 0 -11 7 -11 15 0 37 -133 83
-348 120 -187 33 -343 39 -446 20z m24 -65 c0 -5 -4 -10 -10 -10 -5 0 -10 5
-10 10 0 6 5 10 10 10 6 0 10 -4 10 -10z m340 -27 c-1 -18 -18 -35 -24 -24 -4
6 -4 16 -1 21 7 12 25 13 25 3z m350 -43 c9 -16 8 -20 -5 -20 -8 0 -15 9 -15
20 0 11 2 20 5 20 2 0 9 -9 15 -20z m-460 -16 c0 -8 -4 -14 -10 -14 -5 0 -10
9 -10 21 0 11 5 17 10 14 6 -3 10 -13 10 -21z m-443 -9 c2 -6 -6 -11 -17 -12
-12 -1 -20 4 -20 13 0 17 31 16 37 -1z m568 -5 c3 -5 -1 -10 -9 -10 -9 0 -16
5 -16 10 0 6 4 10 9 10 6 0 13 -4 16 -10z m-631 -24 c26 -24 34 -46 16 -46 -5
0 -13 7 -18 16 -8 13 -11 14 -23 2 -22 -22 -49 -30 -42 -12 3 7 9 14 14 14 5
0 9 8 9 18 0 16 8 32 16 32 2 0 14 -11 28 -24z m363 9 c0 -8 -4 -15 -8 -15
-11 0 -20 16 -12 24 11 11 20 7 20 -9z m653 -5 c0 -11 -4 -20 -9 -20 -5 0 -11
9 -14 20 -3 13 0 20 9 20 8 0 14 -9 14 -20z m-1180 -9 c0 -13 -29 -35 -37 -28
-7 8 15 37 28 37 5 0 9 -4 9 -9z m90 -10 c0 -14 -6 -19 -20 -18 -25 2 -26 24
-2 30 9 3 18 5 20 6 1 0 2 -8 2 -18z m708 -7 c7 4 12 1 12 -7 0 -16 -27 -30
-41 -21 -5 3 -9 17 -9 32 0 24 1 25 13 7 8 -10 19 -15 25 -11z m132 6 c0 -5
-17 -10 -37 -10 -28 0 -34 3 -23 10 20 13 60 13 60 0z m80 -9 c0 -12 -29 -23
-42 -15 -6 4 -5 10 3 15 18 11 39 11 39 0z m164 -22 c-4 -6 -11 -6 -20 2 -21
17 -17 31 6 19 11 -6 18 -15 14 -21z m-1108 -14 c-3 -8 -1 -15 4 -15 6 0 10
-4 10 -10 0 -12 -10 -13 -28 -2 -14 9 -6 42 10 42 6 0 8 -7 4 -15z m-72 -20
c-4 -15 -2 -25 5 -25 6 0 11 5 11 10 0 6 5 10 10 10 13 0 13 -36 0 -61 -6 -10
-18 -19 -27 -19 -13 0 -14 3 -5 12 7 7 12 19 11 28 0 10 -2 11 -6 3 -2 -7 -8
-13 -13 -13 -12 0 -18 46 -8 64 14 25 29 19 22 -9z m996 16 c0 -11 -39 -25
-47 -18 -3 3 -2 10 2 16 8 13 45 15 45 2z m-812 -46 c1 -18 -2 -25 -11 -23 -6
3 -13 20 -15 38 -3 27 -1 32 10 22 7 -6 15 -23 16 -37z m-253 -24 c-10 -25
-24 2 -18 33 6 30 6 30 15 6 5 -13 6 -30 3 -39z m1335 -1 c0 -9 9 -26 20 -37
16 -18 17 -23 5 -33 -11 -9 -16 -7 -25 10 -6 11 -9 24 -6 29 3 4 -6 14 -19 21
-26 14 -34 45 -12 53 14 6 37 -20 37 -43z m-612 13 c-2 -10 -14 -20 -28 -22
-25 -3 -25 -3 -6 18 23 26 39 27 34 4z m-298 -8 c0 -8 -4 -15 -9 -15 -13 0
-22 16 -14 24 11 11 23 6 23 -9z m440 6 c0 -5 -9 -11 -20 -14 -20 -5 -26 3
-13 16 9 10 33 8 33 -2z m300 -1 c0 -5 -9 -10 -21 -10 -11 0 -17 5 -14 10 3 6
13 10 21 10 8 0 14 -4 14 -10z m290 -9 c0 -5 3 -16 6 -25 4 -10 1 -16 -9 -16
-16 0 -30 27 -21 41 7 12 24 12 24 0z m-645 -68 c-2 -7 -15 -13 -27 -13 -22 1
-22 1 -4 15 10 7 15 19 11 25 -4 6 -4 19 0 28 6 14 9 11 16 -13 5 -16 7 -36 4
-42z m165 52 c0 -20 -32 -36 -51 -24 -11 7 -11 9 4 9 10 0 20 7 23 15 8 19 24
19 24 0z m113 -10 c-3 -8 -14 -15 -26 -15 -19 0 -19 1 -2 20 19 21 37 18 28
-5z m-603 5 c0 -5 -4 -10 -9 -10 -6 0 -13 5 -16 10 -3 6 1 10 9 10 9 0 16 -4
16 -10z m-510 -40 c0 -11 -7 -20 -15 -20 -15 0 -21 21 -8 33 12 13 23 7 23
-13z m1291 -27 c-9 -17 -10 -17 -17 1 -4 11 -2 21 7 27 18 11 24 -5 10 -28z
m-801 7 c0 -11 -7 -20 -15 -20 -27 0 -18 30 13 39 1 1 2 -8 2 -19z m750 6 c0
-2 -3 -11 -6 -20 -7 -17 -54 -22 -54 -6 0 6 7 10 15 10 8 0 15 5 15 10 0 6 7
10 15 10 8 0 15 -2 15 -4z m-650 -21 c0 -8 -9 -19 -20 -25 -23 -12 -25 -8 -8
20 15 24 28 26 28 5z m-170 -16 c0 -6 7 -9 15 -5 9 3 15 0 15 -10 0 -22 -44
-14 -48 9 -2 9 1 17 7 17 6 0 11 -5 11 -11z m227 -46 c-21 -22 -32 -11 -15 16
8 13 16 17 22 11 7 -7 4 -16 -7 -27z m351 10 c-2 -10 -11 -19 -21 -21 -16 -3
-17 -1 -7 17 13 25 33 28 28 4z m-734 -44 c-8 -14 -24 -10 -24 6 0 9 6 12 15
9 8 -4 12 -10 9 -15z"/>
<path d="M3392 3634 c2 -9 42 -40 90 -69 48 -29 125 -82 171 -118 80 -62 248
-231 268 -269 8 -15 5 -18 -20 -18 -25 0 -49 19 -143 113 -79 79 -148 136
-228 189 -155 103 -156 103 -210 80 l-45 -19 53 -27 c55 -28 75 -58 70 -105
-2 -14 -12 -30 -23 -36 -33 -17 -84 -71 -95 -100 -6 -15 -9 -29 -8 -30 2 -2
32 -10 68 -19 36 -9 75 -23 87 -32 26 -16 30 -53 11 -84 -11 -17 -4 -28 62
-98 83 -88 90 -91 195 -71 33 6 82 12 110 14 50 4 176 23 181 28 2 1 -22 42
-53 90 -30 48 -53 91 -49 94 13 14 75 -28 107 -71 18 -25 34 -44 36 -42 11 10
-20 97 -44 125 -197 229 -306 328 -477 435 -92 58 -120 68 -114 40z m240 -388
l38 -7 -21 -28 c-18 -24 -19 -34 -11 -65 11 -39 8 -41 -32 -26 -20 7 -33 5
-61 -11 l-35 -21 0 40 c0 32 -5 44 -27 61 l-28 20 36 15 c26 11 40 25 49 48
l11 33 22 -26 c13 -16 37 -29 59 -33z"/>
<path d="M1656 3601 c-3 -5 5 -11 19 -13 17 -4 25 -1 25 8 0 15 -36 19 -44 5z"/>
<path d="M1710 3596 c0 -9 30 -14 35 -6 4 6 -3 10 -14 10 -12 0 -21 -2 -21 -4z"/>
<path d="M3136 3514 c-15 -9 -24 -19 -20 -23 5 -4 43 -15 84 -25 42 -9 91 -26
109 -37 21 -13 32 -15 29 -7 -2 7 -22 22 -44 33 -23 11 -55 32 -73 48 -37 31
-45 32 -85 11z"/>
<path d="M3001 3513 c-20 -4 -70 -48 -71 -63 0 -3 21 -6 46 -7 27 -1 53 -8 65
-19 18 -16 19 -16 19 10 0 15 7 40 15 56 l16 30 -33 -1 c-18 -1 -44 -4 -57 -6z"/>
<path d="M1890 3496 c0 -4 7 -14 15 -23 9 -8 19 -28 22 -44 6 -30 21 -37 40
-18 18 18 37 5 52 -37 20 -56 30 -67 49 -52 26 22 207 126 211 122 9 -8 -36
-47 -81 -70 -45 -23 -65 -41 -55 -50 2 -2 41 -9 86 -14 46 -5 98 -15 117 -22
28 -10 38 -10 52 0 82 59 113 63 159 20 13 -12 24 -20 26 -17 2 2 13 18 25 36
28 40 72 51 116 28 29 -16 33 -16 74 3 49 22 78 19 87 -9 4 -10 11 -19 17 -19
6 0 19 -6 27 -14 9 -8 40 -18 69 -22 47 -6 54 -5 58 13 3 10 19 24 37 31 25 9
29 14 19 24 -10 10 -17 10 -32 0 -30 -18 -37 -15 -50 24 -12 35 -13 36 -54 30
-22 -2 -55 -8 -72 -11 -21 -5 -34 -2 -43 9 -16 19 -54 20 -172 4 -101 -13
-184 -1 -212 32 -16 19 -30 20 -194 20 -161 1 -213 4 -350 26 -24 4 -43 3 -43
0z"/>
<path d="M2889 3496 c-2 -2 -36 -6 -76 -9 -40 -3 -80 -10 -89 -15 -10 -6 -62
-8 -118 -5 -94 4 -100 3 -81 -12 17 -14 44 -15 189 -11 165 5 171 6 195 31 24
24 25 25 5 25 -11 0 -23 -2 -25 -4z"/>
<path d="M3103 3452 c-17 -11 -11 -62 8 -62 8 0 50 -9 94 -21 82 -21 102 -17
90 20 -4 14 -18 22 -43 27 -20 4 -54 15 -74 25 -40 20 -56 23 -75 11z"/>
<path d="M1936 3346 c-9 -49 7 -82 46 -95 134 -43 285 -52 593 -32 196 13 298
25 341 41 26 10 26 11 8 25 -10 8 -31 15 -47 15 -24 0 -27 3 -21 25 5 22 3 24
-12 18 -11 -3 -28 -12 -39 -20 -26 -17 -53 -16 -90 3 -40 21 -69 11 -94 -31
-25 -42 -55 -46 -83 -10 -25 32 -62 32 -92 0 -29 -31 -93 -39 -143 -18 -20 8
-54 13 -77 12 -45 -2 -94 8 -113 24 -9 6 -19 2 -32 -14 -26 -31 -47 -19 -81
44 -30 56 -55 62 -64 13z"/>
<path d="M3156 3341 c-3 -5 -21 -16 -41 -25 -19 -9 -35 -22 -35 -28 0 -16 75
-3 107 17 25 17 26 18 8 31 -22 16 -32 17 -39 5z"/>
<path d="M4392 3288 c-19 -42 -19 -43 -1 -60 21 -18 63 -13 55 8 -3 7 -8 29
-12 48 -9 52 -20 53 -42 4z"/>
<path d="M3220 3295 c-21 -25 -115 -48 -169 -40 -33 4 -66 1 -107 -11 l-59
-18 45 -8 c56 -11 203 -1 246 17 18 7 40 25 50 39 19 29 14 45 -6 21z"/>
<path d="M1872 3272 c-29 -28 -31 -32 -21 -62 8 -22 23 -37 45 -46 41 -17 186
-19 263 -5 29 6 56 11 60 11 3 0 -1 5 -9 10 -9 7 -59 8 -135 4 -136 -7 -195 7
-195 45 0 12 7 21 15 21 8 0 15 -7 15 -15 0 -14 9 -18 79 -29 43 -8 32 6 -17
19 -27 8 -41 20 -53 44 l-15 33 -32 -30z"/>
<path d="M2760 3209 c-30 -4 -102 -11 -160 -14 -58 -4 -127 -8 -155 -10 -27
-2 -68 -4 -90 -4 -32 -1 -42 -6 -50 -23 -16 -35 -104 -96 -174 -119 -51 -17
-78 -20 -133 -16 -57 5 -68 3 -68 -10 0 -11 8 -14 31 -11 24 4 33 1 36 -13 6
-20 62 -32 81 -17 8 7 12 7 12 -1 0 -16 33 -14 56 4 28 21 37 18 30 -9 -8 -33
21 -58 39 -33 13 18 45 23 45 7 0 -5 11 -10 25 -10 14 0 25 4 25 10 0 5 15 1
33 -10 39 -24 57 -25 57 -5 0 9 8 18 18 22 9 3 25 13 34 20 9 8 22 12 27 8 14
-8 14 -38 0 -52 -31 -31 48 -46 89 -17 12 8 22 24 22 35 0 25 16 24 30 -1 7
-13 21 -20 40 -20 l29 0 -15 35 c-14 35 -12 55 6 55 5 0 10 -10 12 -21 2 -12
13 -26 26 -30 18 -7 22 -5 22 11 0 10 -7 20 -17 22 -14 3 -15 4 -1 16 13 10
19 10 32 -3 9 -9 16 -27 16 -41 0 -13 4 -24 8 -24 5 0 14 -12 20 -26 15 -32
61 -30 78 4 16 33 22 36 39 22 24 -20 51 9 36 38 -16 30 -14 44 7 38 9 -3 24
-1 32 4 13 9 10 14 -15 35 l-30 25 27 0 c37 0 69 -42 61 -82 -5 -27 -4 -29 18
-26 16 2 25 11 27 26 3 18 8 21 29 16 l26 -7 -6 56 c-9 70 4 80 49 36 l34 -33
0 27 c0 14 7 30 15 34 20 11 10 69 -14 78 -8 3 -44 1 -78 -6 -55 -11 -61 -14
-52 -31 7 -14 6 -18 -6 -18 -8 0 -15 -5 -15 -11 0 -6 -8 -8 -19 -4 -11 3 -22
1 -26 -5 -3 -5 -10 -10 -16 -10 -16 0 -10 20 15 43 l23 22 -46 2 c-37 2 -50
-2 -73 -24 -16 -15 -28 -22 -28 -15 0 7 -15 4 -42 -8 -24 -10 -81 -23 -128
-29 -89 -12 -165 -28 -141 -30 8 -1 3 -9 -13 -22 -26 -21 -26 -45 0 -35 10 4
14 -2 14 -19 0 -18 -5 -25 -19 -25 -23 0 -34 28 -25 64 8 35 -18 35 -45 0 -23
-29 -51 -26 -51 5 0 25 -40 32 -57 11 -6 -8 -14 -13 -17 -10 -9 10 6 50 18 49
6 -1 22 -1 36 0 24 2 23 2 -7 16 -18 8 -33 21 -33 30 0 19 -1 19 62 -6 67 -27
168 -27 296 0 100 21 122 32 122 62 0 21 -9 22 -100 8z m198 -97 c2 -7 -2 -10
-11 -6 -9 3 -27 -2 -41 -11 -21 -14 -26 -15 -26 -3 0 34 67 52 78 20z m-588 1
c-1 -21 -38 -48 -67 -49 -18 -1 -33 2 -33 7 0 4 15 16 33 27 33 21 67 28 67
15z m424 -25 c-9 -31 -11 -33 -29 -18 -12 10 -21 10 -41 1 -20 -9 -25 -9 -22
1 6 17 47 38 76 38 20 0 22 -4 16 -22z m66 13 c0 -5 -9 -19 -20 -32 -19 -23
-19 -23 -20 -3 0 20 17 44 32 44 4 0 8 -4 8 -9z m-215 -48 c-18 -16 -31 -21
-33 -14 -8 23 8 41 35 41 l28 -1 -30 -26z m-285 -37 c0 -8 10 -18 22 -22 18
-5 19 -8 5 -15 -10 -6 -14 -16 -10 -26 4 -11 2 -14 -8 -11 -8 3 -13 12 -11 21
1 8 -2 18 -8 22 -13 8 -13 45 0 45 6 0 10 -6 10 -14z"/>
<path d="M3270 3136 c-1 -19 -11 -43 -29 -64 -25 -29 -32 -32 -49 -23 -28 15
-32 14 -32 -10 0 -34 -72 -99 -108 -99 -17 0 -34 5 -37 10 -9 15 -35 12 -35
-4 0 -8 -15 -30 -32 -49 -26 -27 -48 -38 -108 -52 -92 -22 -133 -40 -109 -50
22 -8 395 41 487 65 80 20 92 29 92 71 0 16 9 32 22 41 l23 15 -34 32 c-30 28
-33 35 -23 56 7 16 25 28 52 35 22 6 40 13 40 15 0 8 -38 24 -79 34 l-41 9 0
-32z"/>
<path d="M4068 3163 c6 -2 18 -2 25 0 6 3 1 5 -13 5 -14 0 -19 -2 -12 -5z"/>
<path d="M2200 3142 c-31 -11 -85 -16 -176 -16 -127 -1 -131 -2 -124 -21 4
-11 22 -31 41 -43 29 -20 43 -23 89 -19 75 7 159 40 206 82 42 37 34 42 -36
17z"/>
<path d="M1843 3135 c-3 -10 0 -21 7 -25 7 -4 9 -13 6 -19 -4 -6 0 -14 8 -17
9 -3 16 -15 16 -25 0 -10 7 -19 15 -19 19 0 19 3 -5 42 -11 18 -20 41 -20 50
0 24 -19 33 -27 13z"/>
<path d="M2460 3086 c6 -8 18 -12 26 -9 23 9 16 23 -12 23 -22 0 -24 -2 -14
-14z"/>
<path d="M1803 3033 c-40 -20 -41 -36 -7 -80 14 -18 29 -45 35 -61 8 -24 19
-29 101 -49 50 -13 101 -31 112 -42 24 -22 130 -52 186 -53 20 0 70 11 111 25
44 15 118 30 184 36 61 6 147 21 193 32 76 20 81 23 67 39 -8 9 -15 22 -15 29
0 9 -5 9 -20 1 -10 -6 -47 -13 -82 -16 -35 -3 -80 -12 -101 -20 -49 -18 -87
-18 -115 2 -14 10 -32 14 -48 10 -13 -4 -33 -2 -44 4 -11 6 -57 11 -103 12
-54 1 -88 6 -99 15 -9 8 -43 15 -80 17 -48 1 -78 10 -127 34 -35 18 -70 32
-78 32 -7 0 -18 11 -23 25 -5 14 -11 25 -12 24 -2 0 -18 -8 -35 -16z"/>
<path d="M4492 2961 c-7 -4 -41 -9 -75 -9 -34 -1 -101 -7 -149 -14 -68 -9 -85
-15 -77 -24 8 -10 3 -11 -27 -3 -27 8 -62 7 -133 -5 -53 -8 -139 -20 -191 -25
-52 -6 -185 -24 -295 -40 -284 -42 -1357 -195 -1630 -232 -278 -38 -277 -38
-271 -47 2 -4 -35 -9 -82 -10 -122 -3 -151 -6 -145 -14 2 -5 -14 -8 -36 -8
-23 0 -41 -3 -41 -7 0 -5 -41 -9 -91 -10 -50 -2 -107 -7 -127 -12 -20 -5 -66
-12 -102 -16 -105 -11 -145 -20 -142 -34 2 -9 -13 -11 -53 -10 -30 1 -58 -1
-62 -4 -3 -4 7 -7 23 -7 l29 -1 -30 -16 c-17 -9 -25 -18 -17 -20 6 -3 12 -12
12 -21 0 -12 -3 -13 -12 -4 -14 14 -38 16 -38 3 0 -5 8 -12 17 -14 10 -3 0 -5
-21 -6 -22 0 -36 -4 -33 -8 4 -3 -1 -12 -10 -18 -16 -12 -14 -15 15 -40 34
-29 41 -45 18 -45 -12 0 -14 -12 -11 -57 10 -142 91 -703 103 -715 4 -3 99 7
212 23 113 17 232 31 265 32 33 2 66 6 73 11 7 4 42 11 80 16 106 13 334 49
339 54 2 2 -11 9 -29 16 -19 7 -27 14 -20 17 7 3 35 -4 61 -16 46 -19 53 -20
127 -7 120 21 235 36 275 36 27 0 41 6 52 23 13 19 18 20 36 10 28 -17 80 -16
87 1 4 10 15 13 39 9 19 -3 42 -2 52 2 10 4 28 7 39 6 12 -1 73 5 136 14 101
14 119 14 156 1 38 -14 58 -7 31 10 -7 4 -1 11 16 18 l27 11 -41 11 c-39 11
-41 10 -36 -8 6 -17 2 -16 -39 7 -25 14 -52 25 -61 25 -8 0 -18 7 -21 15 -4 8
-14 15 -23 15 -14 0 -14 -2 -1 -10 11 -7 0 -10 -37 -10 -62 0 -205 19 -216 30
-4 3 97 21 225 39 128 18 285 41 348 52 191 31 305 40 353 28 23 -6 56 -11 72
-10 79 3 96 -24 20 -32 -22 -3 -98 -14 -170 -26 -216 -34 -330 -51 -340 -51
-5 0 0 -7 11 -15 18 -14 17 -14 -13 -15 -17 0 -35 5 -38 10 -3 6 -27 10 -53
10 -63 0 -43 -15 38 -29 36 -6 83 -15 105 -19 22 -4 63 -4 90 1 28 5 67 7 87
4 20 -3 38 -1 40 4 2 5 59 16 128 25 69 8 161 21 205 29 52 9 85 10 97 4 12
-7 25 -5 40 5 13 8 43 17 68 19 62 7 110 18 106 26 -2 3 21 7 52 7 50 1 173
14 282 31 59 8 12 22 -101 29 -57 4 -107 12 -111 17 -4 7 -58 2 -155 -13 -81
-13 -173 -24 -203 -24 -79 0 -217 24 -197 35 24 14 96 14 109 1 7 -7 21 -12
32 -12 20 1 20 1 3 14 -23 18 -51 13 408 77 204 29 374 56 379 61 14 11 -99
10 -165 -2 -111 -21 -993 -139 -1001 -134 -4 3 -28 -2 -54 -11 -25 -8 -150
-29 -277 -45 -425 -55 -680 -94 -661 -101 11 -3 66 -7 124 -9 124 -2 195 -11
195 -24 0 -14 -50 -25 -127 -27 -38 -1 -70 -5 -73 -8 -2 -4 17 -15 41 -25 24
-10 44 -22 44 -26 0 -17 -18 -19 -46 -6 -16 8 -41 18 -57 21 -24 6 -26 5 -20
-11 6 -16 3 -15 -22 4 -32 26 -53 25 -272 -9 -68 -10 -151 -22 -185 -25 -35
-3 -148 -19 -252 -35 -104 -17 -201 -29 -215 -26 -70 14 -153 35 -158 40 -11
12 63 18 90 8 35 -14 38 -14 34 1 -3 15 80 32 288 57 293 36 400 52 409 62 13
12 -77 11 -169 -1 -38 -5 -178 -25 -310 -45 -353 -53 -595 -75 -595 -54 0 14
37 25 110 33 36 4 187 25 335 46 149 21 376 53 505 70 129 17 453 62 720 100
267 38 602 85 745 105 272 36 767 108 1015 147 132 21 140 24 95 29 -37 4 -45
7 -32 13 19 9 211 1 260 -10 16 -4 27 -2 27 4 0 6 -12 15 -27 20 l-28 10 26 1
25 1 -27 203 c-16 111 -28 216 -29 233 0 38 -21 58 -77 76 -24 7 -43 16 -43
20 0 11 3 10 61 -12 l51 -21 -7 48 c-4 26 -11 50 -16 51 -5 2 -6 8 -3 13 3 6
3 32 -1 59 -6 42 -10 50 -28 50 -12 0 -28 -4 -35 -9z m-78 -343 c37 -273 30
-251 81 -244 41 7 42 6 49 -25 10 -53 7 -77 -11 -83 -36 -10 -204 -29 -209
-23 -6 6 -86 549 -81 553 3 4 100 21 127 23 13 1 21 -37 44 -201z m-201 -101
c42 -144 77 -267 77 -273 0 -11 -127 -36 -141 -28 -4 2 -10 24 -14 49 -6 43
-8 46 -33 43 -26 -3 -27 -5 -25 -54 l2 -52 -72 -10 c-39 -6 -73 -10 -74 -8 -2
1 -6 131 -10 288 l-6 285 74 10 c41 6 90 11 109 11 l35 2 78 -263z m-426 193
c46 -28 74 -139 36 -141 -10 0 -39 -4 -65 -8 l-47 -8 -9 41 c-6 31 -12 41 -27
41 -14 0 -21 -8 -23 -27 -5 -44 15 -66 92 -103 118 -56 147 -100 148 -224 1
-50 -2 -57 -34 -87 -25 -22 -53 -36 -91 -44 -128 -26 -194 24 -209 160 -3 21
2 25 37 32 83 15 92 12 99 -29 11 -63 17 -73 36 -73 26 0 33 30 18 76 -12 35
-22 44 -97 84 -97 52 -117 74 -131 149 -16 85 7 137 75 167 47 21 154 18 192
-6z m-392 -54 c44 -19 66 -63 73 -145 5 -61 4 -66 -22 -86 l-28 -22 26 -7 c37
-9 48 -37 66 -163 l16 -112 -50 -6 c-28 -4 -58 -9 -67 -11 -14 -4 -19 10 -29
83 -18 132 -27 163 -50 163 -24 0 -23 8 -5 -110 24 -154 26 -146 -51 -155 -36
-4 -68 -4 -71 -2 -5 6 -84 549 -80 553 3 3 121 21 177 27 19 2 41 5 48 5 7 1
28 -4 47 -12z m-301 -236 c15 -102 26 -207 26 -235 0 -97 -57 -145 -172 -145
-72 0 -118 22 -142 67 -13 26 -82 470 -74 478 7 7 132 24 137 19 3 -3 20 -107
38 -231 17 -124 36 -230 42 -236 8 -8 14 -8 23 1 9 9 4 66 -21 242 -18 127
-32 233 -30 234 2 2 33 8 69 13 55 7 66 6 72 -7 4 -8 18 -98 32 -200z m-477
131 c54 -25 72 -54 87 -143 l13 -73 -71 -11 c-39 -7 -72 -11 -73 -10 -1 1 -7
33 -13 71 -6 39 -15 74 -20 79 -16 16 -40 -3 -40 -31 0 -54 48 -345 58 -355
16 -16 42 -1 41 24 0 13 -4 44 -8 70 l-8 46 71 11 c39 5 72 8 75 6 2 -3 6 -37
8 -77 4 -61 1 -78 -16 -105 -30 -48 -90 -74 -168 -75 -114 -1 -142 38 -173
238 -34 218 -27 276 38 316 65 40 136 47 199 19z m-313 -241 c15 -102 26 -207
26 -235 0 -97 -57 -145 -172 -145 -72 0 -118 22 -142 67 -13 26 -82 470 -74
478 7 7 132 24 137 19 3 -3 20 -107 38 -231 17 -124 36 -230 42 -236 8 -8 14
-8 23 1 9 9 4 66 -21 242 -18 127 -32 233 -30 234 2 2 33 8 69 13 55 7 66 6
72 -7 4 -8 18 -98 32 -200z m-504 196 c25 -8 36 -15 25 -15 -11 0 -33 6 -50
14 -39 18 -31 18 25 1z m-197 -38 c18 -9 24 -28 8 -28 -5 0 -33 11 -62 25
l-54 25 45 -6 c25 -3 53 -10 63 -16z m254 -38 c46 -28 74 -139 36 -141 -10 0
-39 -4 -65 -8 l-47 -8 -9 41 c-6 31 -12 41 -27 41 -14 0 -21 -8 -23 -27 -5
-44 15 -66 92 -103 118 -56 147 -100 148 -224 1 -50 -2 -57 -34 -87 -25 -22
-53 -36 -91 -44 -128 -26 -194 24 -209 160 -3 21 2 25 37 32 83 15 92 12 99
-29 11 -63 17 -73 36 -73 26 0 33 30 18 76 -12 35 -22 44 -97 84 -97 52 -117
74 -131 149 -16 85 7 137 75 167 47 21 154 18 192 -6z m-434 -313 c42 -144 77
-267 77 -273 0 -11 -127 -36 -141 -28 -4 2 -10 24 -14 49 -6 43 -8 46 -33 43
-26 -3 -27 -5 -25 -54 l2 -52 -72 -10 c-39 -6 -73 -10 -74 -8 -2 1 -6 131 -10
288 l-6 285 74 10 c41 6 90 11 109 11 l35 2 78 -263z m-449 11 c37 -273 30
-251 81 -244 41 7 42 6 49 -25 10 -53 7 -77 -11 -83 -36 -10 -204 -29 -209
-23 -6 6 -86 549 -81 553 3 4 100 21 127 23 13 1 21 -37 44 -201z m94 -493
c20 -9 38 -12 40 -7 3 11 82 -4 96 -18 10 -10 -23 -20 -64 -19 -14 0 -73 -8
-132 -17 -59 -10 -109 -16 -112 -13 -2 2 -7 18 -10 36 l-7 31 63 10 c89 13 85
14 126 -3z"/>
<path d="M4051 2523 c-1 -61 2 -114 7 -116 4 -2 16 -1 27 2 21 6 21 7 -6 116
l-28 110 0 -112z"/>
<path d="M3285 2513 c8 -67 18 -82 40 -63 30 25 0 120 -38 120 -4 0 -5 -26 -2
-57z"/>
<path d="M1261 2123 c-1 -61 2 -114 7 -116 4 -2 16 -1 27 2 21 6 21 7 -6 116
l-28 110 0 -112z"/>
<path d="M3445 2900 c-18 -20 -18 -20 16 -14 41 8 43 10 34 23 -10 17 -30 13
-50 -9z"/>
<path d="M1772 2795 c-10 -23 -8 -27 33 -55 44 -31 105 -60 124 -60 5 0 -22
32 -60 70 -39 39 -74 70 -78 70 -4 0 -13 -11 -19 -25z"/>
<path d="M1890 2815 c0 -22 48 -67 94 -90 56 -27 132 -34 191 -17 28 8 26 9
-40 27 -39 10 -88 28 -110 40 -22 13 -53 26 -70 29 -16 4 -38 9 -47 12 -10 3
-18 2 -18 -1z"/>
<path d="M2433 2773 c-13 -2 -23 -11 -23 -19 0 -18 36 -10 60 12 16 15 11 16
-37 7z"/>
<path d="M2335 2740 l-20 -9 20 0 c11 0 29 4 40 9 l20 9 -20 0 c-11 0 -29 -4
-40 -9z"/>
<path d="M1696 2655 c-6 -16 11 -20 32 -6 11 7 10 10 -3 15 -22 8 -22 8 -29
-9z"/>
<path d="M4510 2160 c-26 -5 -17 -7 36 -7 39 0 82 -4 95 -8 21 -7 22 -6 11 8
-14 17 -75 20 -142 7z"/>
<path d="M4385 2143 c-11 -2 -31 -6 -45 -10 l-25 -6 25 -6 c34 -9 103 1 108
17 4 12 -21 14 -63 5z"/>
<path d="M4576 2083 c9 -36 7 -34 59 -54 44 -16 45 -16 45 2 0 12 -7 19 -20
19 -11 0 -20 5 -20 10 0 6 7 10 16 10 9 0 14 7 12 18 -2 13 -15 18 -51 20 -48
3 -48 3 -41 -25z"/>
<path d="M4426 2040 c15 -15 76 -17 81 -2 3 8 -9 12 -43 12 -31 0 -45 -3 -38
-10z"/>
<path d="M4525 2040 c-3 -5 1 -10 9 -10 9 0 16 5 16 10 0 6 -4 10 -9 10 -6 0
-13 -4 -16 -10z"/>
<path d="M4155 2011 c-130 -20 -118 -27 90 -46 65 -7 68 -6 55 10 -14 16 -12
17 20 10 19 -4 38 -12 42 -18 5 -8 14 -7 32 1 13 6 42 9 63 6 36 -5 37 -5 18
11 -29 23 -112 45 -164 44 -25 -1 -95 -9 -156 -18z"/>
<path d="M4536 2011 c-3 -5 1 -12 10 -15 27 -10 92 -7 100 5 5 8 -1 10 -19 5
-14 -3 -29 -2 -32 4 -8 12 -52 13 -59 1z"/>
<path d="M3980 1980 c0 -6 11 -8 28 -4 39 10 40 14 4 14 -18 0 -32 -5 -32 -10z"/>
<path d="M2030 1811 l-45 -7 46 -4 c53 -6 79 -2 79 11 0 10 -9 10 -80 0z"/>
<path d="M3576 1781 c-3 -5 8 -14 26 -20 31 -11 47 -3 48 22 0 10 -68 9 -74
-2z"/>
<path d="M3918 1073 c7 -3 16 -2 19 1 4 3 -2 6 -13 5 -11 0 -14 -3 -6 -6z"/>
<path d="M3536 1568 c8 -62 8 -62 29 -55 28 12 11 107 -20 107 -13 0 -15 -9
-9 -52z"/>
<path d="M2606 1448 c8 -62 8 -62 29 -55 28 12 11 107 -20 107 -13 0 -15 -9
-9 -52z"/>
<path d="M1924 1379 c3 -17 6 -42 6 -55 0 -17 6 -24 20 -24 16 0 20 7 20 36 0
43 -15 74 -37 74 -12 0 -14 -7 -9 -31z"/>
<path d="M1952 1158 c9 -70 11 -73 34 -64 14 5 15 15 10 58 -9 62 -12 68 -35
68 -16 0 -17 -6 -9 -62z"/>
</g>
</svg>
