<?xml version="1.0" standalone="no"?>
<!DOCTYPE svg PUBLIC "-//W3C//DTD SVG 20010904//EN"
 "http://www.w3.org/TR/2001/REC-SVG-20010904/DTD/svg10.dtd">
<svg version="1.0" xmlns="http://www.w3.org/2000/svg"
 width="574.000000pt" height="566.000000pt" viewBox="0 0 574.000000 566.000000"
 preserveAspectRatio="xMidYMid meet">

<g transform="translate(0.000000,566.000000) scale(0.100000,-0.100000)"
fill="#000000" stroke="none">
<path d="M2720 5224 c-13 -4 -15 -16 -10 -65 3 -33 3 -62 0 -64 -3 -1 -40 -6
-83 -10 -74 -7 -78 -9 -73 -29 3 -11 6 -36 6 -54 l0 -32 85 6 c70 6 85 4 85
-7 0 -8 7 -69 15 -134 21 -169 22 -163 -22 -170 -77 -12 -181 -39 -276 -71
-69 -23 -99 -29 -101 -21 -8 26 -28 268 -24 273 3 3 38 8 77 11 39 3 74 10 77
14 9 15 -8 108 -20 104 -6 -2 -43 -6 -82 -10 l-71 -6 -7 61 -7 61 -55 -3 -55
-3 7 -62 c7 -72 11 -68 -88 -78 l-68 -7 0 -31 c0 -75 3 -77 96 -70 72 5 84 4
84 -9 0 -9 7 -80 15 -159 8 -78 14 -143 13 -144 -2 -1 -38 -21 -82 -46 -99
-55 -156 -118 -190 -208 -27 -70 -51 -98 -123 -144 -24 -15 -43 -31 -43 -35 0
-4 30 -9 66 -10 75 -2 90 -8 73 -28 -9 -11 -15 -12 -26 -2 -11 9 -16 9 -22 0
-5 -8 -19 -8 -54 3 -61 18 -102 10 -127 -26 -22 -30 -22 -31 40 -61 19 -9 29
-17 22 -17 -7 -1 -31 8 -53 19 l-40 21 -32 -20 c-53 -33 -223 -221 -318 -351
-62 -86 -189 -305 -189 -328 0 -5 32 -13 70 -19 96 -15 141 -2 88 25 -22 11
-22 11 3 6 24 -5 30 1 63 59 87 157 307 419 436 520 34 27 35 28 15 43 -19 16
-19 16 11 11 23 -4 40 1 67 19 31 20 41 23 58 14 21 -12 21 -12 1 -33 -11 -12
-17 -28 -15 -34 3 -8 -4 -13 -20 -13 -85 0 -414 -366 -524 -583 -20 -40 -22
-51 -11 -58 22 -14 48 -10 55 9 28 76 261 376 363 468 60 53 243 184 258 184
13 0 39 -55 50 -108 l10 -42 -44 -31 c-58 -40 -78 -79 -70 -137 4 -28 2 -50
-5 -59 -7 -7 -11 -35 -11 -62 1 -44 -1 -50 -23 -55 -39 -10 -55 -34 -55 -80 0
-30 8 -55 25 -80 31 -45 31 -53 2 -96 -40 -60 -129 -222 -142 -259 -10 -31
-16 -36 -41 -33 -40 4 -209 -33 -207 -46 1 -6 -23 -8 -65 -5 -64 4 -66 3 -47
-13 l20 -17 -20 8 c-11 5 -57 10 -102 13 -50 2 -81 8 -77 14 6 9 -22 37 -37
38 -4 0 -10 -15 -13 -34 -5 -26 -12 -35 -31 -39 -14 -2 -27 -2 -29 2 -3 5 12
77 31 149 4 16 0 27 -13 37 -18 14 -18 14 4 15 37 0 49 42 26 87 -10 21 -19
39 -19 39 0 1 -23 5 -51 9 l-52 7 -17 -46 c-10 -26 -16 -48 -14 -50 2 -2 20
-11 39 -19 l35 -16 -41 6 c-38 5 -42 3 -54 -26 -7 -18 -10 -34 -7 -38 3 -3 0
-12 -8 -20 -8 -8 -15 -29 -15 -48 0 -30 4 -35 45 -52 25 -10 45 -21 45 -25 0
-12 -15 -10 -46 7 -35 18 -61 19 -66 4 -7 -21 -46 1 -57 33 -20 55 -34 207
-21 223 8 10 7 28 -4 72 -8 32 -12 69 -10 83 3 14 -11 97 -30 186 -20 88 -36
167 -36 176 0 21 91 68 169 87 64 16 66 17 81 59 11 32 21 44 40 48 45 10 78
25 96 45 21 23 13 35 -14 20 -10 -5 -29 -7 -41 -4 -14 4 -30 -1 -44 -14 -12
-11 -33 -23 -47 -26 -14 -3 -64 -14 -113 -25 -63 -14 -99 -17 -130 -11 -23 4
-60 8 -83 9 l-41 0 -6 51 c-7 56 -29 99 -52 99 -31 0 -45 -30 -45 -100 l0 -68
-37 -15 c-21 -8 -55 -17 -76 -21 -21 -4 -55 -16 -76 -27 -26 -13 -66 -20 -136
-24 -96 -5 -170 -17 -182 -29 -15 -14 14 -21 77 -18 60 2 71 0 89 -20 12 -12
21 -26 21 -30 0 -5 12 -13 27 -19 20 -7 39 -6 77 6 41 14 57 15 92 5 39 -11
42 -14 48 -57 3 -25 6 -59 6 -76 0 -17 9 -49 19 -71 27 -57 40 -118 61 -286
27 -206 26 -299 -2 -344 -15 -23 -31 -35 -45 -36 -17 0 -23 -6 -23 -23 0 -13
3 -26 6 -30 3 -3 7 -29 8 -57 1 -39 6 -56 21 -66 15 -11 17 -17 7 -23 -11 -6
-10 -29 2 -122 27 -200 85 -628 113 -826 l27 -193 28 0 c15 0 83 9 150 19 68
11 157 23 199 26 l76 7 10 -29 c16 -44 60 -90 99 -103 19 -7 33 -14 31 -16 -2
-3 -16 0 -31 5 -40 16 -34 -6 33 -106 88 -131 86 -130 213 -135 122 -5 117
-14 39 80 -25 30 -66 64 -93 78 -56 28 -61 36 -17 27 l32 -6 -61 90 c-70 104
-83 139 -57 150 13 4 24 -1 37 -18 47 -59 59 -69 83 -69 31 0 31 4 1 56 l-23
41 86 12 c47 7 120 17 161 22 41 6 114 18 162 26 80 15 88 15 112 0 14 -9 42
-17 61 -17 31 0 35 3 30 19 -4 15 1 20 26 25 56 11 65 9 45 -12 -16 -18 -13
-19 66 -18 74 1 85 4 101 24 27 33 64 49 131 57 57 7 58 7 47 -13 -6 -11 -11
-22 -11 -24 0 -2 27 -1 61 2 59 6 65 10 90 53 15 26 95 21 91 -5 -2 -15 5 -18
42 -18 40 0 45 3 55 30 9 27 14 30 50 30 29 0 41 -4 41 -14 0 -18 15 -23 52
-18 18 3 28 10 28 21 0 26 21 41 57 41 30 0 33 -2 27 -24 -5 -20 -1 -24 35
-34 l41 -10 0 34 c0 44 19 84 40 84 10 0 17 -6 17 -12 -1 -11 15 -75 28 -115
3 -8 16 0 35 19 25 25 31 37 26 59 -5 25 -2 28 26 35 25 5 35 2 47 -13 13 -15
25 -18 58 -15 37 4 41 6 33 22 -11 21 4 30 49 30 20 0 31 -8 44 -33 10 -17 31
-48 48 -67 l29 -34 0 41 c0 29 5 45 17 52 17 9 17 10 0 29 -21 23 -17 27 39
36 34 6 46 3 70 -17 23 -19 37 -23 71 -19 24 2 40 8 37 13 -3 5 2 9 10 9 9 0
16 5 16 10 0 6 -4 10 -10 10 -5 0 -10 4 -10 9 0 10 76 31 112 31 13 0 39 -11
58 -24 33 -22 42 -23 130 -19 71 4 104 2 131 -10 l36 -15 30 62 31 62 238 32
c132 18 247 34 257 36 11 3 17 -2 17 -12 0 -21 -28 -110 -69 -220 -17 -46 -31
-85 -31 -88 0 -7 44 -4 56 4 19 12 33 46 78 189 40 127 45 138 69 141 31 4 32
10 -29 -180 -24 -75 -44 -139 -44 -141 0 -8 89 -27 129 -27 l39 0 26 67 c14
38 39 122 56 188 18 66 33 121 34 122 1 1 53 9 116 18 194 27 314 46 318 50 3
2 -7 86 -22 187 -14 101 -37 266 -51 368 -14 102 -32 230 -40 285 -8 55 -26
186 -40 290 -14 105 -35 250 -47 322 l-21 133 -45 17 c-27 10 -47 25 -53 39
-4 13 -13 88 -19 166 -10 151 -18 190 -44 230 -15 22 -14 27 4 63 11 22 20 58
20 81 0 48 -43 141 -94 198 l-34 40 -16 -37 c-19 -46 -50 -49 -82 -9 l-23 27
-20 -47 c-27 -60 -42 -139 -35 -181 9 -43 29 -76 71 -113 l36 -31 -25 -34
c-39 -52 -70 -117 -88 -189 -19 -70 -35 -83 -64 -51 -29 32 -32 93 -7 150 43
100 14 208 -65 246 -91 43 -191 -37 -169 -135 8 -38 66 -100 93 -100 11 0 24
-4 27 -10 5 -8 -32 -185 -42 -199 -1 -2 -26 23 -55 55 -196 220 -423 388 -698
515 -94 44 -162 83 -194 111 -27 24 -56 48 -65 55 -42 29 -155 80 -241 109
l-95 31 -17 129 c-9 71 -17 143 -17 160 l-1 32 80 7 c88 8 89 8 74 85 l-7 32
-83 -7 -84 -7 0 30 c0 16 -3 44 -6 61 -6 27 -11 31 -38 31 -70 0 -74 -5 -69
-74 l6 -63 -83 -7 -82 -8 6 -51 c4 -28 9 -54 12 -56 2 -2 38 0 80 5 55 7 77 7
80 -1 5 -11 33 -269 30 -272 0 0 -37 5 -81 12 -44 7 -136 16 -206 20 l-125 7
-18 160 c-10 88 -16 161 -14 164 3 2 39 7 81 10 l77 7 0 41 c0 66 -6 69 -98
61 l-81 -7 -3 59 -3 58 -40 2 c-22 0 -47 -1 -55 -3z m440 -634 c277 -42 490
-109 502 -158 3 -11 22 -23 49 -31 70 -21 171 -153 190 -251 11 -57 11 -62
-10 -84 -28 -30 -108 -52 -236 -67 -201 -22 -490 -60 -505 -65 -27 -11 -804
-4 -865 7 -33 6 -94 14 -135 19 -92 10 -140 26 -140 48 0 14 -2 14 -9 3 -5 -7
-15 -11 -22 -9 -10 3 -13 23 -10 77 4 102 49 196 128 273 111 107 411 230 632
258 92 12 283 3 431 -20z m902 -503 c157 -85 258 -165 427 -336 90 -91 176
-185 193 -208 16 -24 35 -43 42 -43 7 0 17 -26 25 -67 7 -38 15 -78 18 -90 3
-13 0 -23 -6 -23 -6 0 -11 7 -11 16 0 41 -116 164 -155 164 -23 0 -18 -12 56
-126 34 -52 59 -97 56 -100 -3 -3 -38 -10 -79 -15 -40 -6 -77 -16 -83 -23 -7
-9 -19 -10 -40 -4 -19 5 -77 0 -164 -14 l-134 -21 -46 49 c-26 27 -71 75 -100
106 l-53 57 21 34 c20 32 20 34 2 63 -21 34 -47 47 -140 68 -34 8 -66 17 -69
21 -22 22 70 144 126 166 18 7 22 16 22 54 0 64 -12 81 -80 115 -33 17 -60 33
-60 36 0 3 25 16 56 30 l55 24 72 -41 c167 -96 367 -256 463 -370 56 -65 95
-91 129 -87 25 3 23 7 -57 103 -119 142 -292 286 -481 397 -82 49 -94 59 -102
86 -9 32 8 28 97 -21z m-301 -143 c13 -15 47 -37 74 -49 51 -23 83 -50 72 -61
-3 -3 -23 3 -44 15 -21 11 -82 32 -137 45 -54 14 -101 28 -105 31 -13 14 42
45 78 45 28 0 44 -7 62 -26z m-176 -14 c-8 -16 -15 -47 -15 -70 0 -45 -13 -51
-39 -19 -13 16 -33 23 -80 28 l-63 6 26 24 c14 14 26 30 26 37 0 15 26 21 103
23 l58 1 -16 -30z m-1370 -2 c22 -6 166 -13 321 -17 l280 -6 32 -27 c48 -40
127 -53 233 -39 128 17 219 15 241 -6 16 -14 25 -15 69 -5 28 7 66 12 85 12
31 0 36 -4 50 -40 11 -26 22 -40 34 -40 25 0 30 10 37 70 8 71 19 77 95 45 35
-15 83 -31 107 -36 48 -10 61 -21 61 -56 0 -20 -5 -23 -37 -23 -21 0 -63 7
-93 15 -65 18 -145 20 -117 4 27 -16 20 -39 -14 -46 -22 -4 -34 -14 -41 -34
-5 -16 -13 -29 -17 -29 -36 0 -130 27 -147 41 -11 11 -27 19 -35 19 -8 0 -19
10 -24 23 -13 30 -45 32 -94 8 -50 -26 -71 -26 -102 -3 -20 15 -32 17 -67 10
-35 -8 -47 -17 -69 -51 -15 -23 -28 -44 -30 -46 -1 -2 -19 11 -40 28 -26 21
-48 31 -71 31 -34 0 -92 -27 -92 -42 0 -23 -50 -26 -120 -7 -41 10 -97 19
-126 19 -29 0 -56 5 -59 10 -4 6 -15 8 -26 5 -13 -4 -19 -2 -19 8 0 19 25 40
85 70 43 22 110 77 93 77 -13 0 -264 -154 -275 -169 -10 -14 -16 -6 -42 51
-17 37 -31 72 -31 78 0 15 -22 12 -48 -6 -31 -21 -52 -11 -52 24 0 16 -9 41
-20 55 -11 14 -20 28 -20 31 0 10 62 6 105 -6z m1165 -18 c-30 -42 -53 -52
-86 -40 -18 7 -72 7 -173 -1 -142 -12 -200 -9 -231 11 -41 27 59 39 161 20 42
-8 61 -7 93 5 36 14 145 30 229 34 l28 1 -21 -30z m-1134 -162 c47 -95 67
-106 108 -61 23 25 27 26 38 11 7 -8 27 -19 43 -22 30 -7 36 -8 111 -5 23 0
62 -8 87 -19 58 -26 130 -20 155 13 43 54 87 58 131 10 46 -51 75 -44 106 24
16 37 22 41 54 41 20 0 45 -7 55 -15 28 -21 86 -18 121 5 42 28 55 25 55 -10
0 -28 2 -30 25 -24 16 4 32 1 43 -8 9 -8 26 -18 37 -22 18 -7 16 -9 -14 -22
-76 -32 -347 -59 -720 -71 -172 -6 -250 2 -396 39 -118 30 -115 27 -115 108 0
69 2 72 42 79 4 0 20 -23 34 -51z m1478 -4 c23 -9 20 -31 -7 -49 -23 -15 -127
-39 -135 -31 -9 10 11 46 26 46 9 0 31 9 47 20 32 21 44 24 69 14z m1540 -84
c8 -35 14 -65 13 -66 -1 -1 -13 -5 -27 -8 -17 -4 -33 0 -50 13 l-24 19 29 61
c16 34 32 58 36 54 5 -5 15 -37 23 -73z m-3114 -2 c0 -28 38 -55 86 -63 57 -8
57 -25 0 -25 -58 0 -97 15 -103 40 -8 30 -23 24 -23 -10 0 -25 5 -30 38 -39
78 -20 115 -22 190 -11 50 8 100 9 142 3 l65 -9 -50 -17 c-65 -24 -295 -35
-347 -18 -62 21 -88 47 -88 91 0 32 6 43 37 68 38 31 53 28 53 -10z m1630 24
c0 -24 -36 -57 -85 -78 -67 -28 -367 -32 -351 -5 12 18 138 43 194 38 71 -6
184 17 208 44 22 24 34 24 34 1z m-467 -111 c11 -43 -46 -67 -223 -97 -129
-21 -200 -18 -287 12 -41 14 -78 23 -81 19 -12 -11 38 -44 76 -50 20 -4 48
-10 62 -15 l25 -7 -27 -13 c-24 -11 -31 -11 -46 3 -23 21 -62 22 -62 3 0 -9 7
-12 19 -9 14 3 20 -2 26 -24 13 -53 24 -55 64 -13 51 54 61 52 54 -14 -5 -48
-3 -55 17 -66 25 -14 25 -14 34 23 6 26 5 28 -14 22 -14 -4 -22 -1 -26 10 -7
18 22 55 45 56 12 0 11 3 -4 9 -29 11 -14 15 159 40 160 23 200 37 218 75 11
25 28 34 28 15 0 -5 -4 -10 -10 -10 -5 0 -10 -9 -10 -20 0 -26 3 -25 38 10 29
28 33 29 93 24 41 -4 91 0 139 10 41 9 90 16 108 16 34 0 43 -11 55 -76 5 -26
3 -31 -11 -30 -12 1 -18 -8 -20 -31 -2 -18 -6 -33 -9 -33 -3 0 -23 16 -45 35
-21 20 -43 33 -49 30 -5 -4 -8 -36 -7 -73 l3 -67 -27 2 c-24 1 -28 -2 -28 -23
0 -17 -8 -27 -27 -35 -39 -15 -55 -5 -46 28 3 16 6 36 5 47 -2 27 -42 66 -69
66 -31 0 -29 -12 7 -32 36 -20 37 -29 9 -54 -16 -14 -23 -15 -26 -6 -5 12 -33
18 -33 7 0 -4 7 -19 15 -36 12 -22 13 -34 5 -49 -13 -24 -20 -25 -46 -5 -27
21 -31 19 -44 -20 -9 -28 -18 -36 -46 -41 -41 -8 -64 8 -64 43 0 15 -5 23 -12
20 -8 -2 -17 12 -23 37 -8 31 -15 42 -32 44 -13 2 -23 -1 -23 -7 0 -6 7 -11
15 -11 17 0 21 -55 5 -65 -5 -3 -10 -1 -10 5 0 6 -11 15 -25 20 -18 7 -25 17
-25 35 0 14 -4 25 -9 25 -18 0 -20 -31 -4 -66 15 -31 15 -36 3 -44 -28 -18
-60 -11 -72 15 -14 31 -38 33 -38 2 0 -30 -46 -57 -98 -57 -49 0 -58 11 -42
50 7 16 9 37 6 46 -6 15 -8 15 -24 1 -9 -8 -28 -17 -42 -19 -17 -2 -26 -10
-28 -25 -4 -29 -35 -30 -78 -4 -25 15 -33 16 -48 6 -17 -13 -56 -9 -56 5 0 18
-31 18 -49 -1 -16 -17 -23 -19 -41 -9 -18 9 -21 18 -16 41 6 32 0 35 -29 16
-35 -24 -54 -27 -70 -10 -15 14 -17 14 -29 -2 -9 -13 -15 -15 -20 -7 -4 7 -23
12 -42 12 -30 0 -34 3 -29 19 5 18 1 20 -37 18 -37 -2 -43 1 -46 19 -3 21 0
21 86 16 75 -4 100 -1 156 18 85 28 184 94 215 143 l24 37 81 0 c89 0 478 29
485 36 2 2 26 4 52 4 38 0 48 -4 52 -19z m1537 -41 c8 -1 4 -6 -9 -11 -19 -7
-28 -6 -40 7 -15 15 -14 16 9 10 14 -3 32 -6 40 -6z m-2266 -25 c-11 -27 -120
-93 -192 -115 -83 -26 -177 -26 -218 -1 -31 19 -69 81 -56 92 4 4 43 2 86 -4
91 -12 224 1 321 31 33 10 61 18 63 17 1 -1 -1 -10 -4 -20z m1311 10 c29 -9
59 -22 65 -30 13 -16 16 -15 -55 -37 -28 -9 -42 -21 -49 -40 -8 -23 -5 -31 30
-63 l39 -37 -28 -23 c-19 -18 -27 -33 -27 -58 0 -20 -7 -40 -17 -49 -34 -30
-176 -59 -453 -93 -63 -8 -136 -17 -162 -21 -25 -3 -68 -3 -94 1 l-48 7 55 19
c30 10 90 28 134 40 103 27 129 43 157 98 13 26 24 48 26 50 1 3 16 -3 31 -12
43 -25 74 -21 119 16 37 29 49 48 65 99 5 14 10 15 37 5 28 -11 33 -10 46 8 8
11 23 30 35 43 17 17 20 29 15 57 -8 41 -2 43 79 20z m-1802 -51 c4 -21 20
-51 35 -67 22 -23 24 -29 12 -37 -24 -16 -45 -6 -43 18 2 13 -4 25 -12 28 -8
4 -15 15 -15 25 0 10 -4 19 -10 19 -11 0 -14 43 -3 54 14 14 28 -2 36 -40z
m-27 -106 c8 -27 22 -38 47 -38 11 0 32 -10 49 -21 43 -31 141 -59 207 -59 44
0 62 -5 75 -19 14 -15 32 -18 119 -18 64 0 111 -5 126 -12 15 -8 39 -11 63 -7
31 5 45 2 65 -14 32 -25 64 -25 131 0 28 11 67 19 85 19 47 -2 130 12 146 25
11 8 15 8 19 -3 2 -7 13 -21 23 -29 11 -9 19 -21 19 -27 0 -6 -37 -18 -82 -29
-46 -10 -87 -21 -93 -26 -5 -4 -75 -12 -155 -19 -118 -10 -164 -19 -247 -47
-55 -19 -114 -34 -130 -34 -54 0 -201 46 -232 73 -18 15 -54 30 -88 37 -32 7
-68 16 -81 21 -13 5 -36 9 -52 9 -24 0 -30 6 -41 38 -6 20 -24 53 -40 73 -15
19 -31 47 -34 61 -6 23 -2 29 32 47 49 26 60 26 69 -1z m3338 -76 c3 -5 7 -38
9 -75 3 -36 7 -69 10 -74 7 -11 20 -123 15 -123 -3 0 -32 11 -66 25 -70 28
-72 29 -72 15 0 -5 8 -10 18 -10 30 0 120 -48 126 -67 3 -10 12 -70 20 -133 9
-63 23 -167 31 -230 31 -225 31 -220 4 -221 -23 -1 -23 -1 4 -11 15 -5 27 -16
27 -24 0 -17 6 -17 -105 -1 -72 11 -232 15 -255 6 -11 -3 58 -17 100 -19 37
-2 29 -5 -45 -15 -49 -7 -121 -18 -160 -24 -236 -36 -494 -74 -585 -86 -58 -8
-197 -28 -310 -45 -192 -29 -327 -48 -495 -70 -232 -31 -524 -71 -615 -85
-191 -29 -732 -105 -930 -130 -107 -14 -334 -45 -505 -70 -349 -49 -581 -81
-670 -91 -62 -7 -95 -18 -95 -34 0 -11 232 -2 244 10 6 6 37 10 71 10 33 0
122 9 198 20 76 11 186 27 245 35 59 8 150 21 202 30 155 24 301 37 344 29 30
-5 36 -8 24 -15 -17 -10 -205 -38 -433 -64 -287 -34 -454 -63 -434 -76 25 -15
-1 -23 -34 -11 -40 14 -104 16 -112 3 -3 -6 11 -13 32 -17 21 -3 56 -11 78
-17 65 -18 189 -12 355 17 85 15 202 31 260 36 58 5 168 20 245 34 77 13 183
28 235 31 89 7 96 6 114 -14 23 -25 38 -27 29 -4 -7 18 1 17 102 -11 28 -7 52
-12 54 -10 10 9 -16 26 -70 45 -33 12 -58 24 -55 26 2 2 55 8 118 13 125 10
151 16 145 34 -4 13 -101 23 -242 25 -105 1 -175 9 -175 20 0 7 166 30 785
111 132 17 281 40 330 51 50 11 113 22 141 24 29 2 85 8 125 14 41 5 162 22
269 36 107 15 366 51 576 81 209 30 398 54 420 54 37 0 74 -14 64 -23 -3 -3
-117 -21 -255 -41 -137 -19 -359 -51 -493 -71 -134 -19 -246 -35 -250 -35 -4
0 1 -5 11 -11 20 -12 23 -29 5 -29 -7 0 -26 7 -42 15 -30 16 -88 19 -121 6
-14 -6 6 -13 70 -26 140 -27 163 -28 270 -6 143 30 328 48 333 33 2 -8 28 -12
70 -12 37 0 102 -7 145 -15 43 -8 82 -15 85 -15 3 0 1 -5 -4 -10 -6 -6 -64
-15 -130 -20 -65 -6 -147 -17 -182 -26 -35 -9 -78 -14 -97 -11 -19 3 -35 2
-35 -4 0 -5 -12 -9 -26 -9 -14 0 -35 -5 -47 -12 -12 -6 -49 -13 -81 -15 -38
-2 -66 -9 -78 -20 -15 -14 -22 -14 -41 -4 -18 10 -40 10 -98 1 -41 -6 -137
-20 -214 -30 -214 -30 -217 -30 -211 -46 7 -17 4 -17 -29 -2 -19 9 -48 8 -125
-2 -89 -12 -107 -11 -153 3 -29 8 -74 19 -102 22 -27 4 -66 12 -85 18 -34 10
-34 11 -10 18 43 12 104 9 124 -6 22 -16 66 -20 66 -6 0 5 -10 12 -22 16 -25
8 103 32 317 60 66 8 155 22 199 30 43 8 93 15 110 15 18 0 41 6 51 14 19 13
17 15 -19 21 -27 6 -41 4 -46 -6 -7 -11 -13 -11 -37 1 -71 33 -199 30 -441
-10 -65 -11 -247 -38 -407 -60 -313 -44 -358 -51 -353 -56 5 -4 194 -32 263
-38 53 -4 58 -3 41 9 -18 14 -18 15 -1 21 13 5 23 1 33 -14 8 -12 22 -22 31
-22 9 0 40 -14 70 -30 62 -34 69 -36 51 -15 -19 23 -6 28 42 14 58 -17 66 -26
28 -34 -29 -6 -30 -8 -15 -25 15 -16 15 -18 -1 -24 -10 -4 -20 -2 -24 4 -12
20 -132 23 -253 5 -65 -9 -127 -15 -138 -12 -11 3 -33 -2 -50 -10 -29 -14 -43
-14 -81 2 -13 5 -18 3 -18 -8 0 -16 -41 -27 -99 -27 -26 0 -32 3 -21 10 12 7
12 10 -4 16 -13 5 -23 1 -32 -11 -19 -26 -18 -32 14 -49 36 -20 20 -20 -38 1
-46 16 -55 16 -157 0 -59 -9 -121 -17 -138 -17 -16 0 -64 -7 -107 -17 l-77
-16 -61 26 c-67 29 -80 32 -80 17 0 -5 7 -10 15 -10 18 0 65 -21 65 -30 0 -3
-55 -12 -122 -19 -68 -7 -152 -20 -188 -28 -36 -9 -98 -19 -139 -23 -47 -5
-79 -13 -85 -22 -8 -11 -18 -13 -35 -7 -15 6 -79 2 -180 -12 -86 -11 -187 -25
-226 -30 -38 -5 -92 -14 -120 -20 -27 -6 -68 -9 -90 -7 -39 3 -40 4 -46 48 -4
25 -14 92 -23 150 -9 58 -23 155 -31 215 -8 61 -23 173 -34 250 -10 77 -22
177 -26 223 -7 81 -7 82 16 82 22 1 20 4 -20 41 -41 36 -43 41 -28 57 9 9 15
21 14 27 -1 6 15 9 38 7 32 -2 37 0 22 8 -9 6 -15 15 -12 21 9 13 43 11 48 -3
2 -7 8 -9 13 -5 5 4 2 12 -6 18 -13 8 -11 12 8 28 l22 19 -30 7 c-59 13 -41
25 39 25 48 0 81 4 83 11 2 6 51 17 108 25 58 8 143 21 190 29 47 9 128 16
180 18 52 1 98 6 102 11 3 5 27 9 53 8 41 0 44 1 28 13 -16 12 -11 13 35 8 54
-6 64 0 35 24 -16 13 -15 13 6 2 27 -13 222 -20 215 -7 -6 10 63 28 107 28 31
0 568 73 734 100 33 6 161 24 285 40 273 38 602 84 1015 145 171 25 396 57
500 71 105 13 231 30 280 37 50 7 120 12 157 12 36 0 64 3 61 8 -2 4 -1 7 4 7
4 1 28 5 53 10 25 6 107 14 182 19 76 6 146 14 155 20 22 13 60 14 67 3z
m-1309 -72 c22 -24 21 -26 -32 -35 -48 -8 -53 -1 -21 32 26 28 30 28 53 3z
m-1915 -124 c19 -3 67 -21 105 -40 39 -19 99 -42 135 -52 36 -9 71 -21 79 -25
23 -11 -125 -32 -175 -24 -64 9 -164 64 -191 104 -28 42 -31 66 -5 53 9 -5 33
-12 52 -16z m-144 -16 c24 -17 44 -36 44 -41 0 -6 23 -33 51 -60 36 -35 45
-49 32 -49 -27 0 -120 46 -167 82 -22 18 -43 33 -44 34 -4 3 30 64 36 64 2 0
23 -14 48 -30z m804 -40 c-34 -26 -71 -34 -81 -18 -13 21 10 31 86 36 18 1 17
0 -5 -18z m-110 -24 c0 -9 -17 -16 -51 -21 -67 -9 -73 0 -13 19 62 19 64 19
64 2z m-790 -118 c0 -4 -9 -8 -19 -8 -11 0 -26 -3 -35 -6 -19 -7 -22 16 -5 33
12 12 59 -3 59 -19z m3584 -607 c16 -17 11 -18 -94 -16 -60 0 -113 4 -116 8
-4 4 6 7 22 8 16 0 38 4 49 8 39 16 122 11 139 -8z m-244 -20 c0 -32 -97 -51
-150 -28 l-35 14 55 10 c71 14 130 15 130 4z m264 -47 c22 -22 20 -40 -6 -49
l-23 -8 22 -4 c14 -3 25 -14 29 -29 9 -34 2 -37 -32 -19 -16 8 -45 21 -65 29
-31 12 -37 19 -41 50 -2 20 -2 39 1 41 12 12 101 4 115 -11z m-199 -70 c12
-13 19 -13 30 -4 16 14 35 5 35 -16 0 -8 10 -14 23 -14 13 0 27 -3 31 -7 4 -5
18 -8 29 -8 12 0 23 -4 24 -10 3 -12 -132 -14 -144 -1 -4 5 -2 11 5 13 6 3 12
9 12 14 0 12 -33 12 -46 -1 -6 -6 -28 -4 -62 6 -76 23 -69 33 30 42 9 1 24 -5
33 -14z m-157 -29 c34 -8 82 -25 105 -37 l42 -22 -65 -6 c-36 -4 -72 -10 -79
-14 -7 -5 -19 -2 -29 7 -16 14 -43 21 -67 18 -5 -1 1 -8 15 -16 33 -19 25 -19
-162 1 -84 9 -176 13 -205 10 -28 -3 -54 -2 -58 3 -3 5 20 13 50 16 31 4 122
18 203 30 182 28 174 28 250 10z m-2795 -270 c3 -13 -87 -19 -133 -9 l-35 7
30 8 c42 10 135 6 138 -6z m1907 -20 c0 -13 -24 -55 -32 -55 -9 0 -68 28 -78
37 -2 2 2 8 10 13 15 10 100 14 100 5z"/>
<path d="M3100 4469 c0 -11 5 -17 10 -14 6 3 10 13 10 21 0 8 -4 14 -10 14 -5
0 -10 -9 -10 -21z"/>
<path d="M3540 4431 c0 -12 5 -21 10 -21 6 0 10 6 10 14 0 8 -4 18 -10 21 -5
3 -10 -3 -10 -14z"/>
<path d="M2970 4423 c0 -13 5 -23 10 -23 13 0 13 11 0 30 -8 12 -10 11 -10 -7z"/>
<path d="M2400 4400 c0 -5 9 -10 20 -10 11 0 20 5 20 10 0 6 -9 10 -20 10 -11
0 -20 -4 -20 -10z"/>
<path d="M3120 4390 c0 -5 7 -10 16 -10 8 0 12 5 9 10 -3 6 -10 10 -16 10 -5
0 -9 -4 -9 -10z"/>
<path d="M3670 4366 c0 -19 5 -38 11 -41 15 -10 17 -4 11 38 -5 47 -22 49 -22
3z"/>
<path d="M2314 4379 c-3 -6 1 -18 10 -27 12 -13 19 -13 28 -4 9 9 9 12 0 12
-7 0 -12 7 -12 15 0 17 -16 20 -26 4z"/>
<path d="M2790 4375 c0 -8 5 -15 10 -15 6 0 10 7 10 15 0 8 -4 15 -10 15 -5 0
-10 -7 -10 -15z"/>
<path d="M3600 4369 c0 -11 5 -17 10 -14 6 3 10 13 10 21 0 8 -4 14 -10 14 -5
0 -10 -9 -10 -21z"/>
<path d="M2125 4349 c-12 -19 5 -23 22 -6 16 16 16 17 1 17 -9 0 -20 -5 -23
-11z"/>
<path d="M2237 4353 c-12 -11 -8 -21 12 -26 17 -4 31 9 31 29 0 7 -36 5 -43
-3z"/>
<path d="M3250 4348 c-16 -6 -20 -12 -12 -15 18 -7 62 5 62 17 0 12 -18 12
-50 -2z"/>
<path d="M2370 4336 c0 -15 18 -31 26 -23 7 7 -7 37 -17 37 -5 0 -9 -6 -9 -14z"/>
<path d="M3100 4341 c0 -17 30 -40 45 -35 23 9 18 33 -5 27 -11 -3 -20 0 -20
6 0 6 -4 11 -10 11 -5 0 -10 -4 -10 -9z"/>
<path d="M3371 4331 c-7 -5 -9 -11 -4 -14 6 -4 19 0 29 8 15 11 16 14 4 15 -8
0 -21 -4 -29 -9z"/>
<path d="M2290 4320 c0 -5 4 -10 9 -10 6 0 13 5 16 10 3 6 -1 10 -9 10 -9 0
-16 -4 -16 -10z"/>
<path d="M3590 4315 c7 -8 17 -12 22 -9 6 4 5 10 -3 15 -22 14 -33 10 -19 -6z"/>
<path d="M2226 4291 c-8 -24 9 -46 27 -34 5 3 5 8 -1 12 -5 3 -12 15 -14 26
-4 18 -5 18 -12 -4z"/>
<path d="M3660 4300 c0 -5 7 -10 16 -10 8 0 12 5 9 10 -3 6 -10 10 -16 10 -5
0 -9 -4 -9 -10z"/>
<path d="M2136 4278 c-11 -17 -13 -32 -7 -53 7 -24 10 -27 16 -13 4 9 4 22 0
27 -3 6 -1 20 5 32 16 30 5 36 -14 7z"/>
<path d="M3341 4287 c-6 -8 -8 -17 -5 -20 10 -9 45 13 39 24 -9 13 -21 11 -34
-4z"/>
<path d="M2360 4248 c0 -20 5 -40 10 -43 13 -8 13 45 0 65 -7 11 -10 6 -10
-22z"/>
<path d="M2050 4226 c0 -20 5 -36 10 -36 6 0 10 13 10 29 0 17 -4 33 -10 36
-6 4 -10 -8 -10 -29z"/>
<path d="M2177 4243 c-4 -3 -7 -16 -7 -28 0 -11 -5 -26 -12 -33 -16 -16 -2
-28 16 -13 8 6 16 27 18 46 4 34 -1 43 -15 28z"/>
<path d="M3663 4235 c-8 -23 3 -29 26 -13 21 15 18 28 -6 28 -7 0 -16 -7 -20
-15z"/>
<path d="M2937 4212 c-10 -10 -17 -22 -17 -26 0 -12 37 13 44 29 8 21 -7 19
-27 -3z"/>
<path d="M2574 4209 c-3 -6 -1 -16 5 -22 8 -8 11 -5 11 11 0 24 -5 28 -16 11z"/>
<path d="M3101 4211 c-7 -5 -9 -11 -4 -14 6 -4 19 0 29 8 15 11 16 14 4 15 -8
0 -21 -4 -29 -9z"/>
<path d="M3475 4210 c-3 -5 1 -10 9 -10 8 0 18 5 21 10 3 6 -1 10 -9 10 -8 0
-18 -4 -21 -10z"/>
<path d="M3682 4198 c7 -19 38 -22 38 -4 0 10 -9 16 -21 16 -12 0 -19 -5 -17
-12z"/>
<path d="M3842 4184 c2 -17 10 -30 20 -32 14 -3 15 2 9 24 -10 39 -34 45 -29
8z"/>
<path d="M3255 4181 c-3 -11 -16 -22 -28 -24 -15 -3 -12 -5 11 -6 28 -1 32 2
32 24 0 30 -6 32 -15 6z"/>
<path d="M2642 4181 c4 -13 18 -16 19 -4 0 4 -5 9 -11 12 -7 2 -11 -2 -8 -8z"/>
<path d="M3047 4184 c-3 -4 -4 -18 0 -32 3 -15 1 -27 -8 -33 -17 -10 -5 -23
16 -16 16 7 19 39 6 70 -3 10 -10 15 -14 11z"/>
<path d="M3385 4170 c-17 -18 -17 -20 -1 -20 9 0 19 7 23 15 9 25 -2 27 -22 5z"/>
<path d="M3720 4148 c0 -30 11 -41 34 -32 18 7 22 24 5 24 -7 0 -18 8 -25 18
-12 15 -13 15 -14 -10z"/>
<path d="M2017 4132 c-22 -24 -21 -32 3 -32 15 0 20 7 20 25 0 30 -2 30 -23 7z"/>
<path d="M3621 4121 c-8 -6 -11 -16 -7 -27 5 -12 10 -14 17 -7 16 16 7 45 -10
34z"/>
<path d="M2617 4103 c-4 -3 -7 -12 -7 -19 0 -17 27 -7 34 12 5 14 -15 20 -27
7z"/>
<path d="M3536 4094 c-4 -9 -13 -14 -21 -10 -8 3 -15 1 -15 -5 0 -16 29 -22
45 -9 16 14 20 40 6 40 -5 0 -12 -7 -15 -16z"/>
<path d="M2742 4078 c-16 -16 -15 -28 2 -28 7 0 16 9 19 20 6 23 -3 26 -21 8z"/>
<path d="M2540 4057 c0 -21 25 -38 44 -31 19 7 15 31 -4 26 -7 -1 -18 3 -26 9
-11 9 -14 8 -14 -4z"/>
<path d="M2823 4020 c-8 -11 -9 -21 -3 -25 8 -5 30 24 30 39 0 13 -16 5 -27
-14z"/>
<path d="M3251 4022 c-14 -26 -7 -42 10 -25 6 6 9 19 7 29 -3 17 -5 17 -17 -4z"/>
<path d="M2340 3970 c0 -5 7 -10 16 -10 8 0 12 5 9 10 -3 6 -10 10 -16 10 -5
0 -9 -4 -9 -10z"/>
<path d="M4150 3646 c-14 -35 -25 -46 -49 -51 -44 -9 -47 -22 -12 -43 28 -15
31 -22 31 -64 0 -27 3 -48 6 -48 3 0 20 10 36 22 27 19 36 20 72 10 22 -6 42
-9 43 -8 1 1 -2 19 -8 39 -9 32 -7 43 10 71 12 18 21 36 21 40 0 3 -18 6 -40
6 -36 0 -43 4 -61 35 -12 19 -23 35 -25 35 -3 0 -13 -20 -24 -44z"/>
<path d="M3501 3514 c-26 -33 -27 -48 -3 -36 9 6 36 13 59 17 38 6 41 8 30 26
-17 28 -61 24 -86 -7z"/>
<path d="M3355 3460 c-23 -26 -11 -39 14 -16 13 11 27 15 40 11 24 -7 29 10 5
19 -26 10 -40 7 -59 -14z"/>
<path d="M2632 3443 c-51 -31 -53 -41 -6 -38 23 2 45 11 61 27 23 24 24 26 6
30 -11 3 -38 -6 -61 -19z"/>
<path d="M3154 3440 c-12 -5 -25 -13 -29 -19 -8 -13 15 -14 35 -1 10 6 20 4
33 -8 16 -14 19 -14 27 -2 24 37 -11 52 -66 30z"/>
<path d="M3282 3441 c-8 -4 -12 -19 -10 -32 3 -23 4 -23 21 9 17 32 14 39 -11
23z"/>
<path d="M2707 3411 c-5 -22 1 -33 14 -25 12 7 12 44 0 44 -5 0 -11 -9 -14
-19z"/>
<path d="M3010 3390 c0 -25 8 -25 40 0 l25 20 -32 0 c-26 0 -33 -4 -33 -20z"/>
<path d="M2670 3339 c0 -23 22 -49 40 -49 11 0 20 5 20 10 0 6 -6 10 -14 10
-8 0 -18 9 -21 20 -7 21 -25 28 -25 9z"/>
<path d="M2690 3265 c0 -8 5 -15 10 -15 6 0 10 7 10 15 0 8 -4 15 -10 15 -5 0
-10 -7 -10 -15z"/>
<path d="M5096 3087 l-78 -10 5 -46 c14 -129 90 -637 97 -644 7 -8 267 27 277
37 3 2 2 32 -2 66 l-7 62 -57 -4 -56 -3 -39 278 c-24 167 -44 276 -50 276 -6
-1 -46 -6 -90 -12z"/>
<path d="M4722 3032 l-104 -15 3 -354 4 -355 27 6 c15 3 57 8 93 12 l66 7 -2
66 -3 66 35 0 c33 0 34 -2 44 -52 5 -28 13 -54 16 -57 5 -6 170 12 177 18 2 3
-69 246 -174 594 -29 95 -13 89 -182 64z m125 -439 c-1 -1 -16 -3 -32 -5 l-30
-3 -2 140 -2 140 34 -135 c18 -74 32 -136 32 -137z"/>
<path d="M4255 2975 c-27 -8 -52 -14 -55 -15 -11 -1 -58 -46 -68 -67 -15 -28
-15 -130 -1 -174 22 -64 55 -96 151 -144 51 -26 98 -51 105 -57 6 -5 16 -30
22 -56 11 -53 1 -82 -30 -82 -22 0 -39 35 -39 83 0 54 -6 57 -93 45 -73 -10
-77 -12 -77 -36 0 -58 32 -142 66 -171 81 -72 269 -44 331 48 27 41 29 88 7
175 -23 89 -51 120 -157 172 -110 54 -114 57 -126 102 -11 39 0 72 24 72 18 0
27 -16 35 -60 5 -32 8 -35 40 -34 19 0 57 4 84 8 l48 8 -7 46 c-10 70 -32 108
-71 127 -49 23 -130 27 -189 10z"/>
<path d="M3736 2892 l-98 -15 6 -51 c3 -28 12 -96 20 -151 8 -55 26 -185 41
-290 15 -104 30 -193 34 -196 11 -12 164 15 169 29 3 11 -11 128 -34 270 -4
29 -3 32 20 32 31 0 39 -24 61 -184 9 -61 18 -112 20 -115 5 -4 155 16 162 22
1 2 -4 46 -12 98 -33 205 -40 221 -101 238 l-28 7 31 19 c39 23 48 55 38 134
-9 70 -25 109 -59 141 -23 21 -38 25 -99 26 -40 1 -116 -5 -171 -14z m141
-110 c15 -10 35 -105 27 -127 -6 -15 -10 -17 -36 -19 -13 -1 -40 131 -31 147
5 9 25 9 40 -1z"/>
<path d="M3447 2850 c-27 -5 -51 -11 -54 -14 -5 -5 36 -329 58 -455 14 -83 12
-131 -7 -138 -21 -8 -31 9 -39 66 -27 193 -77 516 -80 519 -6 7 -158 -17 -166
-26 -4 -4 10 -128 31 -277 44 -304 54 -337 122 -375 83 -47 231 -22 290 49 40
46 43 85 20 249 -11 81 -29 207 -39 280 l-18 132 -35 -1 c-19 -1 -57 -5 -83
-9z"/>
<path d="M2870 2779 c-93 -10 -158 -58 -180 -134 -10 -34 -7 -70 14 -225 15
-102 33 -208 41 -235 30 -104 125 -151 247 -121 76 18 123 51 149 104 19 38
21 54 15 120 -4 43 -10 80 -14 84 -4 3 -44 2 -90 -5 l-82 -11 6 -86 c6 -83 6
-87 -14 -92 -12 -3 -26 0 -32 8 -13 15 -72 405 -68 443 4 29 33 50 48 35 6 -6
17 -51 26 -100 9 -49 16 -90 17 -91 1 -1 40 4 87 11 l85 12 -3 40 c-5 57 -31
153 -49 181 -32 49 -110 73 -203 62z"/>
<path d="M2465 2711 c-29 -4 -41 -11 -44 -26 -2 -11 14 -143 35 -293 33 -236
36 -274 24 -282 -10 -6 -19 -5 -28 3 -14 15 -19 45 -62 352 -17 120 -33 221
-35 224 -3 2 -44 -2 -91 -9 l-86 -12 6 -37 c3 -20 18 -117 31 -216 48 -344 56
-369 130 -405 60 -29 165 -27 225 4 46 23 86 70 97 115 5 21 -59 522 -73 574
-6 18 -46 21 -129 8z"/>
<path d="M1650 2680 c34 -19 120 -49 120 -41 0 15 -23 28 -72 40 -56 13 -69
14 -48 1z"/>
<path d="M1868 2636 c-59 -16 -94 -39 -119 -79 -27 -43 -20 -150 13 -216 21
-41 35 -52 123 -98 128 -68 137 -77 139 -144 1 -50 -1 -54 -23 -57 -30 -5 -38
9 -47 76 -3 29 -10 54 -14 57 -4 2 -40 -1 -81 -8 l-74 -13 3 -40 c5 -62 31
-132 59 -154 84 -66 255 -44 327 40 21 26 26 42 26 89 0 76 -24 153 -60 195
-18 20 -69 52 -125 80 -102 49 -119 69 -113 130 4 46 42 49 57 5 6 -18 11 -41
11 -52 0 -18 5 -19 53 -13 115 15 117 16 111 45 -26 115 -44 142 -110 160 -50
14 -97 13 -156 -3z"/>
<path d="M1285 2542 l-110 -17 4 -350 c2 -192 5 -352 7 -354 1 -2 41 2 88 9
l86 12 0 64 c0 44 4 64 13 64 6 0 21 3 32 6 18 5 22 -2 33 -55 8 -40 18 -61
27 -61 47 0 165 24 165 34 0 6 -44 157 -98 336 -84 280 -100 325 -117 327 -11
1 -69 -6 -130 -15z m89 -321 c14 -63 25 -115 24 -116 -2 -1 -15 -5 -29 -8 -25
-6 -26 -5 -33 46 -9 78 -6 236 4 212 4 -11 20 -71 34 -134z"/>
<path d="M833 2478 c-58 -9 -63 -12 -63 -35 0 -31 89 -653 95 -663 4 -6 275
27 284 35 2 3 0 33 -5 67 l-9 63 -57 -3 c-37 -3 -58 0 -58 7 0 6 -12 90 -26
188 -14 98 -31 216 -38 263 -13 97 -11 96 -123 78z"/>
<path d="M955 1635 c-5 -2 -27 -6 -47 -10 -37 -6 -54 -25 -23 -25 13 0 13 -3
3 -20 -24 -38 0 -41 137 -19 72 11 152 22 178 24 77 6 79 22 5 35 -26 5 -45 4
-49 -2 -4 -6 -20 -4 -44 6 -33 14 -132 21 -160 11z"/>
<path d="M1638 3291 c-13 -33 -22 -41 -52 -46 -20 -4 -36 -11 -36 -16 0 -13
70 -54 116 -67 22 -6 51 -21 64 -32 13 -11 25 -20 28 -20 2 0 1 20 -2 45 -6
37 -4 50 13 71 29 37 26 44 -19 44 -32 0 -43 5 -62 30 -12 17 -25 30 -28 30
-4 0 -14 -18 -22 -39z"/>
<path d="M1123 3243 c-22 -8 -14 -32 12 -39 31 -8 28 -26 -4 -34 -21 -5 -19
-7 18 -23 55 -25 102 -19 117 13 31 67 31 67 -42 75 -37 4 -72 8 -78 10 -6 2
-17 1 -23 -2z"/>
<path d="M1360 3190 c0 -12 -5 -17 -14 -14 -16 6 -41 -48 -32 -71 3 -8 16 -15
28 -15 18 0 28 12 46 53 28 65 28 67 -3 67 -18 0 -25 -5 -25 -20z"/>
<path d="M1616 3145 c-8 -23 -9 -22 14 -28 28 -7 33 7 11 27 -17 15 -19 16
-25 1z"/>
<path d="M1200 3080 c0 -5 7 -10 15 -10 8 0 15 5 15 10 0 6 -7 10 -15 10 -8 0
-15 -4 -15 -10z"/>
<path d="M1286 3036 c4 -18 0 -27 -16 -36 -17 -9 -19 -14 -9 -26 9 -11 8 -14
-6 -14 -12 0 -15 -5 -11 -16 4 -10 -1 -22 -10 -29 -10 -7 -15 -19 -12 -27 8
-19 68 -12 68 8 0 7 6 28 14 46 38 93 38 118 0 118 -21 0 -23 -4 -18 -24z"/>
<path d="M4051 1698 l-74 -10 6 -52 c12 -107 68 -531 71 -542 3 -7 26 -8 78
-1 40 5 74 10 74 11 1 0 -6 61 -15 135 -14 115 -15 134 -2 139 24 9 38 -25 50
-126 19 -154 15 -145 64 -137 106 16 99 11 92 68 -21 172 -27 197 -57 222 -16
14 -35 25 -41 25 -7 1 0 7 15 16 34 18 43 49 34 116 -19 143 -68 166 -295 136z
m131 -100 c24 -19 28 -107 6 -121 -24 -16 -28 -9 -35 67 -6 67 -1 77 29 54z"/>
<path d="M3776 1662 l-118 -16 6 -60 c4 -34 15 -122 26 -196 10 -74 24 -184
31 -243 11 -103 13 -108 33 -103 12 3 72 10 134 17 l112 12 0 46 c0 67 -9 75
-69 68 -28 -3 -52 -3 -55 1 -2 4 -8 36 -12 70 -6 61 -6 62 17 62 53 0 69 11
69 44 0 17 -3 41 -6 54 -6 22 -10 23 -54 17 l-47 -6 -6 38 c-13 77 -12 80 44
87 l51 7 -6 37 c-3 20 -6 47 -6 60 0 12 -6 21 -12 21 -7 -1 -66 -9 -132 -17z"/>
<path d="M3367 1618 c-50 -13 -104 -68 -113 -113 -6 -35 16 -258 38 -369 14
-75 51 -119 111 -135 55 -13 111 1 133 35 15 23 17 23 29 7 10 -13 24 -17 56
-14 24 1 45 4 47 5 2 3 -38 319 -41 322 -1 1 -22 -2 -47 -6 -25 -5 -62 -9 -82
-10 -20 0 -40 -4 -43 -10 -10 -16 6 -80 20 -80 28 0 37 -136 9 -147 -8 -3 -20
-1 -25 4 -5 5 -21 96 -34 203 -25 190 -24 220 6 220 13 0 28 -43 31 -90 2 -36
5 -40 27 -39 37 0 120 15 127 21 3 4 0 34 -7 68 -22 115 -112 162 -242 128z"/>
<path d="M4776 1548 c-23 -32 -20 -38 19 -38 29 0 37 5 45 26 14 35 14 34 -19
34 -20 0 -35 -8 -45 -22z"/>
<path d="M2878 1547 c-56 -10 -56 -10 -52 -41 3 -17 20 -149 39 -294 18 -145
35 -266 38 -268 3 -3 37 -2 76 2 83 8 78 -6 56 159 -8 61 -15 113 -15 118 0
11 38 9 45 -3 3 -5 13 -60 21 -122 9 -62 17 -118 19 -124 2 -7 24 -8 70 -3 38
5 69 10 71 12 8 8 -30 235 -42 255 -8 13 -26 28 -40 34 l-25 12 28 22 c25 20
27 27 26 82 -2 68 -20 119 -54 151 -20 18 -33 21 -113 20 -50 -1 -116 -6 -148
-12z m162 -113 c10 -25 14 -104 6 -104 -2 0 -11 -3 -19 -6 -16 -6 -19 4 -32
94 -6 38 -5 42 14 42 14 0 25 -9 31 -26z"/>
<path d="M4862 1461 c-29 -54 -52 -103 -52 -108 0 -6 10 -15 23 -21 19 -9 18
-10 -13 -6 -34 5 -36 4 -79 -66 -23 -39 -41 -73 -40 -74 2 -2 46 -6 97 -9 78
-6 92 -4 92 8 0 8 5 15 10 15 6 0 19 14 30 32 14 24 16 35 8 45 -8 10 -7 13 5
13 17 0 127 194 127 223 0 24 -52 47 -108 47 l-49 0 -51 -99z"/>
<path d="M2663 1518 c-57 -9 -63 -12 -58 -31 3 -12 9 -58 15 -102 5 -44 16
-129 25 -190 8 -60 15 -129 15 -152 0 -42 -14 -63 -31 -46 -5 5 -24 119 -41
254 -17 134 -32 246 -34 248 -1 1 -36 -1 -76 -6 l-73 -8 2 -30 c11 -142 57
-456 71 -485 42 -88 205 -107 292 -34 51 44 55 78 31 275 -37 296 -41 319 -60
318 -9 -1 -44 -6 -78 -11z"/>
<path d="M4734 1465 c-3 -14 -10 -25 -14 -25 -4 0 -13 -14 -21 -32 -7 -17 -37
-65 -67 -107 -85 -118 -90 -139 -33 -126 23 5 42 24 85 88 38 54 53 84 46 91
-16 16 -12 28 8 22 13 -4 24 7 45 47 15 29 27 56 27 60 0 4 -16 7 -35 7 -29 0
-36 -4 -41 -25z"/>
<path d="M2134 1449 c-39 -4 -90 -10 -113 -14 -42 -7 -42 -7 -37 -43 7 -40 53
-401 64 -497 l7 -60 60 3 c33 2 100 9 149 17 133 21 155 51 136 186 -13 91
-32 128 -70 136 -28 5 -43 23 -20 23 5 0 19 10 31 23 18 19 20 30 15 76 -16
135 -62 166 -222 150z m65 -116 c9 -17 14 -60 12 -94 -1 -19 -30 -34 -42 -22
-4 4 -10 36 -14 71 -7 58 -6 62 14 62 11 0 25 -8 30 -17z m34 -235 c16 -67 19
-119 7 -133 -21 -26 -38 -17 -44 23 -19 136 -19 132 7 132 17 0 26 -7 30 -22z"/>
<path d="M1490 1310 c0 -5 -7 -10 -16 -12 -12 -2 7 -34 76 -123 51 -66 100
-125 109 -132 9 -7 32 -13 51 -14 31 -2 32 -3 8 -6 -16 -2 -28 -8 -28 -13 0
-12 65 -40 95 -40 25 0 21 6 -52 88 -43 48 -95 110 -116 138 -20 29 -48 59
-62 68 -14 9 -25 23 -25 30 0 8 -9 16 -20 19 -11 3 -20 1 -20 -3z"/>
<path d="M3922 1281 c-8 -4 -12 -18 -10 -30 3 -21 4 -21 38 8 34 30 34 30 10
30 -14 1 -31 -3 -38 -8z"/>
<path d="M2380 1200 c0 -5 5 -10 10 -10 6 0 10 5 10 10 0 6 -4 10 -10 10 -5 0
-10 -4 -10 -10z"/>
<path d="M4496 1129 c-14 -17 -26 -37 -26 -45 0 -8 -4 -14 -9 -14 -5 0 -53
-40 -107 -88 -247 -220 -455 -339 -736 -421 -194 -57 -323 -75 -533 -75 -237
0 -383 24 -610 100 -80 26 -336 149 -387 185 -15 11 -44 26 -66 33 -21 8 -61
36 -89 64 -27 27 -60 51 -73 54 -14 3 -39 12 -57 19 -45 18 -51 5 -12 -28 59
-51 243 -188 294 -220 153 -96 413 -197 615 -237 183 -37 467 -46 650 -21 346
46 666 185 942 408 113 92 243 221 234 235 -3 5 8 15 25 22 26 11 49 36 49 54
0 3 -18 6 -39 6 -32 0 -44 -6 -65 -31z"/>
<path d="M4636 1105 c-25 -26 -46 -53 -46 -60 0 -6 -18 -26 -40 -44 -22 -18
-38 -36 -35 -42 4 -5 -6 -14 -22 -20 -15 -5 -50 -31 -78 -57 -236 -223 -539
-382 -879 -462 -268 -64 -600 -67 -879 -9 -168 35 -275 74 -490 177 -78 37
-121 53 -125 45 -5 -7 -24 -4 -62 10 -52 20 -54 21 -26 27 16 3 31 10 32 15 2
6 -29 33 -69 62 -40 28 -118 90 -174 136 -109 91 -113 92 -241 103 -80 6 -83
5 -74 -12 6 -11 75 -82 154 -159 179 -176 337 -286 429 -300 38 -6 78 -29 67
-40 -3 -4 -20 1 -38 10 -54 28 -44 9 12 -23 134 -76 344 -158 519 -203 568
-144 1215 -31 1704 299 146 98 265 193 325 259 49 54 80 91 80 97 0 1 -19 9
-42 16 -25 8 -36 15 -26 17 9 2 32 -2 50 -10 l35 -15 39 46 c59 69 104 130
104 140 0 14 -47 31 -105 38 l-54 7 -45 -48z m-61 -175 c3 -6 -1 -7 -9 -4 -18
7 -21 14 -7 14 6 0 13 -4 16 -10z"/>
<path d="M3290 997 c0 -20 5 -27 20 -27 11 0 20 4 20 8 0 5 -9 17 -20 27 -20
18 -20 17 -20 -8z"/>
</g>
</svg>
